<svg width="110" height="111" viewBox="0 0 110 111" fill="none" xmlns="http://www.w3.org/2000/svg">
<path d="M21.6227 45.3988L60.9338 31.2742L87.8187 33.3219L62.8137 42.215L21.6227 45.3988Z" fill="#D7DFF4"/>
<path d="M21.5474 90.2621L21.9863 94.5377L60.2023 89.2958V82.0547L21.5474 90.2621Z" fill="#06B694"/>
<path d="M43.6787 118.737L60.2014 119.997V89.2949L43.6787 91.5613V118.737Z" fill="#06B694"/>
<path d="M21.9868 94.5382L24.3208 117.263L36.5624 118.196L34.9086 92.7656L21.9868 94.5382Z" fill="#06B694"/>
<path d="M21.5474 90.2621L21.9863 94.5377L34.9084 92.7651L34.5656 87.4979L43.6796 85.5628V91.5622L60.2023 89.2958V82.0547L21.5474 90.2621Z" fill="#06B694"/>
<path d="M34.9077 92.7654L36.5615 118.196L43.679 118.738V91.5625L34.9077 92.7654Z" fill="#064698"/>
<path d="M43.6799 85.5625L34.5659 87.4975L34.9086 92.7648L43.6799 91.5619V85.5625Z" fill="#064698"/>
<path d="M60.2007 89.2949V119.997L69.2781 119.118L69.2881 91.7544L60.2007 89.2949Z" fill="#06B694"/>
<path d="M84.7506 90.8887L84.246 95.8036L77.4637 93.9678L75.742 118.493L70.6138 118.989L81.9777 117.888L84.7506 90.8887Z" fill="#06B694"/>
<path d="M77.4644 93.968L69.2896 91.7559L69.2793 119.119L70.6145 118.99L75.7427 118.493L77.4644 93.968Z" fill="#064698"/>
<path d="M69.2913 85.3254L77.8543 88.4067L77.4641 93.9675L84.2461 95.8033L84.7508 90.8884L60.2017 82.0547V89.2958L69.2888 91.7551L69.2913 85.3254Z" fill="#06B694"/>
<path d="M69.2913 85.3254L77.8543 88.4067L77.4641 93.9675L84.2461 95.8033L84.7508 90.8884L60.2017 82.0547V89.2958L69.2888 91.7551L69.2913 85.3254Z" fill="#06B694"/>
<path d="M69.2908 85.3242L69.2886 91.7542L77.4637 93.9667L77.8541 88.4056L69.2908 85.3242Z" fill="#064698"/>
<path d="M69.2908 85.3242L69.2886 91.7542L77.4637 93.9667L77.8541 88.4056L69.2908 85.3242Z" fill="#064698"/>
<path d="M19.4892 35.421L21.6673 45.4367L60.959 31.513L87.8324 33.3982L85.6494 23.3601L58.0261 19.9811L19.4892 35.421Z" fill="#06B694"/>
<path d="M32.4711 30.2688L34.7665 40.7904L44.1672 37.4679L41.7845 26.5464L32.4711 30.2688Z" fill="#064698"/>
<path d="M76.6842 22.2349L78.9702 32.714L69.975 32.0816L67.7618 21.1433L58.0679 19.957L61.0651 31.4554L87.8319 33.3369L85.6493 23.3322L76.6842 22.2349Z" fill="#06B694"/>
<path d="M78.958 32.6996L76.6774 22.2424L67.7755 21.1533L69.9834 32.0687L78.958 32.6996Z" fill="#064698"/>
<path d="M78.958 32.6996L76.6774 22.2424L67.7755 21.1533L69.9834 32.0687L78.958 32.6996Z" fill="#064698"/>
<path d="M56.2551 20.8173C56.2551 20.8173 56.7714 12.2352 54.8637 8.53271C52.9561 4.82989 49.3725 4.31929 44.2994 6.69513C47.2679 6.68406 51.6772 5.29307 53.3255 22.0216C54.1033 21.7438 56.2551 20.8173 56.2551 20.8173Z" fill="#064698"/>
<path d="M62.2811 20.5388C64.1205 18.8482 65.6095 17.3129 68.2992 15.9339C74.8097 12.5962 77.4954 16.6416 77.4954 16.6416C77.4954 16.6416 76.8154 11.0206 69.6166 12.4757C65.1265 13.3831 61.1896 17.1223 58.7449 20.1062L62.2811 20.5388Z" fill="#064698"/>
<path d="M50.0098 23.3057L47.4679 24.359C47.4679 24.359 44.1267 22.93 38.3891 22.6761C32.6517 22.4224 29.6731 25.5063 30.8612 28.4356C27.7188 24.1614 31.6014 19.8059 36.2758 19.8951C40.9505 19.9841 46.2339 20.4699 50.0098 23.3057Z" fill="#064698"/>
<path d="M51.9553 22.517C50.795 21.2012 46.9243 16.1235 46.9971 12.7022C47.058 9.84533 48.3161 7.32954 48.3161 7.32954C48.3161 7.32954 42.4633 3.53085 42.023 11.7871C41.6974 17.8889 50.392 23.1441 50.392 23.1441C50.392 23.1441 51.2982 22.7802 51.9553 22.517Z" fill="#064698"/>
<path d="M33.6081 29.8327C30.3875 29.8735 29.3077 26.429 32.2264 24.1768C36.9248 28.1605 40.0425 27.3136 40.0425 27.3136C40.0425 27.3136 34.2145 29.6203 33.6081 29.8327Z" fill="#064698"/>
<path d="M74.7136 22.0197C81.8696 15.8 73.9257 14.6475 73.9257 14.6475C73.9257 14.6475 76.8322 17.8577 69.3417 21.3551C70.5231 21.5258 74.7136 22.0197 74.7136 22.0197Z" fill="#064698"/>
<path d="M74.7136 22.0197C81.8696 15.8 73.9257 14.6475 73.9257 14.6475C73.9257 14.6475 76.8322 17.8577 69.3417 21.3551C70.5231 21.5258 74.7136 22.0197 74.7136 22.0197Z" fill="#17263A"/>
<path d="M33.6082 29.833C30.3875 29.8738 29.3077 26.4292 32.2265 24.1768C36.925 28.1607 40.2109 27.2944 40.2109 27.2944C40.2109 27.2944 34.2147 29.6205 33.6082 29.833Z" fill="#17263A"/>
<path d="M51.9551 22.5171C50.7948 21.2012 46.924 16.1236 46.9969 12.7023C47.0577 9.84538 48.3161 7.32954 48.3161 7.32954C48.3161 7.32954 42.4634 3.53084 42.023 11.7871C41.6974 17.8889 50.3916 23.1439 50.3916 23.1439C50.3916 23.1439 51.2979 22.7802 51.9551 22.5171Z" fill="#17263A"/>
<path d="M50.6978 6.375C50.6978 6.375 53.3549 7.20692 54.1154 10.2803C54.8761 13.3533 55.5094 19.9197 55.5094 19.9197C55.5094 19.9197 55.8595 15.424 54.7086 10.2075C53.8309 6.23067 50.6978 6.375 50.6978 6.375Z" fill="white"/>
<path d="M103.468 43.4848L101.179 43.1552L99.6129 44.8338L99.2148 42.5784L97.1125 41.6182L99.1558 40.5538L99.4221 38.2817L101.083 39.8794L103.35 39.4353L102.333 41.4871L103.468 43.4848Z" fill="#F8AA9D"/>
<path d="M6.75734 55.6994L4.45901 55.4473L2.95584 57.1789L2.47698 54.937L0.342837 54.0479L2.34522 52.9144L2.52942 50.6333L4.24582 52.1747L6.4938 51.654L5.55221 53.7401L6.75734 55.6994Z" fill="#007BB2"/>
<path d="M25.1321 78.9623L22.8683 78.48L21.1824 80.0467L20.9477 77.7734L18.9165 76.6757L21.0353 75.753L21.4658 73.5078L23.01 75.2108L25.3073 74.921L24.1428 76.8962L25.1321 78.9623Z" fill="#FFC800"/>
<path d="M109.138 83.6473L106.958 82.9008L105.091 84.261L105.145 81.9716L103.273 80.6401L105.487 79.9717L106.196 77.7886L107.51 79.6648L109.821 79.6471L108.419 81.4751L109.138 83.6473Z" fill="#FFC800"/>
<path d="M80.3869 48.82L78.1798 48.1483L76.3622 49.5702L76.3343 47.2816L74.4141 46.0152L76.6038 45.2725L77.2346 43.0679L78.616 44.8974L80.926 44.8014L79.59 46.6748L80.3869 48.82Z" fill="#FFC800"/>
<path d="M35.6692 58.4427L33.4054 57.9605L31.7195 59.5272L31.4848 57.2539L29.4536 56.1561L31.5724 55.2335L32.0029 52.9883L33.5471 54.6913L35.8444 54.4015L34.6799 56.3767L35.6692 58.4427Z" fill="#06B694"/>
<path d="M76.6338 78.6799L74.3355 78.4278L72.8323 80.1594L72.3534 77.9175L70.2193 77.0284L72.2217 75.8949L72.4059 73.6138L74.1223 75.1552L76.3703 74.6345L75.4287 76.7206L76.6338 78.6799Z" fill="#F8AA9D"/>
<path d="M62.2328 51.6861L60.0668 50.9024L58.1768 52.231L58.272 49.9423L56.4242 48.5789L58.6491 47.9481L59.3972 45.7768L60.677 47.6756L62.9871 47.6972L61.5532 49.5015L62.2328 51.6861Z" fill="#007BB2"/>
<path d="M44.5294 80.6394L42.3492 79.893L40.4827 81.2531L40.537 78.9638L38.6646 77.6323L40.8784 76.9639L41.5877 74.7808L42.9016 76.657L45.2123 76.6393L43.8106 78.4673L44.5294 80.6394Z" fill="#007BB2"/>
<path d="M81.8385 60.9926L79.5491 60.663L77.9836 62.3416L77.5854 60.0862L75.4831 59.126L77.5264 58.0616L77.7927 55.7895L79.4537 57.3872L81.7205 56.9432L80.7038 58.9949L81.8385 60.9926Z" fill="#007BB2"/>
<path d="M10.7282 24.9084L8.42129 24.7736L7.01435 26.5808L6.41608 24.3647L4.23875 23.585L6.17596 22.3502L6.23723 20.0611L8.03276 21.5141L10.248 20.879L9.42045 23.0118L10.7282 24.9084Z" fill="#F8AA9D"/>
<path d="M100.67 11.8421L98.4502 11.2081L96.6579 12.66L96.5887 10.373L94.6453 9.13964L96.8221 8.36025L97.4133 6.14603L98.8279 7.95134L101.137 7.81627L99.8341 9.7114L100.67 11.8421Z" fill="#FFC800"/>
</svg>
