<svg fill="none" height="15" viewBox="0 0 8 15" width="8"
    xmlns="http://www.w3.org/2000/svg">
    <path
        d="M6.51771 15C6.43483 15.0005 6.35266 14.9847 6.27593 14.9536C6.1992 14.9225 6.12941 14.8767 6.07056 14.8188L0.925131 9.71339C0.631877 9.42316 0.399213 9.07837 0.240464 8.69878C0.0817147 8.31919 0 7.91225 0 7.50127C0 7.0903 0.0817147 6.68336 0.240464 6.30377C0.399213 5.92418 0.631877 5.57939 0.925131 5.28915L6.07056 0.183776C6.12928 0.125512 6.19899 0.0792941 6.27572 0.0477618C6.35244 0.0162295 6.43467 6.13912e-10 6.51771 0C6.60076 -6.13912e-10 6.68299 0.0162295 6.75971 0.0477618C6.83644 0.0792941 6.90615 0.125512 6.96487 0.183776C7.02359 0.24204 7.07017 0.311209 7.10195 0.387335C7.13373 0.463461 7.15009 0.545052 7.15009 0.62745C7.15009 0.709848 7.13373 0.791439 7.10195 0.867565C7.07017 0.94369 7.02359 1.01286 6.96487 1.07112L1.81944 6.1765C1.46562 6.528 1.26688 7.00448 1.26688 7.50127C1.26688 7.99806 1.46562 8.47454 1.81944 8.82605L6.96487 13.9314C7.0239 13.9895 7.07075 14.0586 7.10273 14.1348C7.1347 14.2109 7.15116 14.2926 7.15116 14.3751C7.15116 14.4576 7.1347 14.5393 7.10273 14.6154C7.07075 14.6916 7.0239 14.7607 6.96487 14.8188C6.90602 14.8767 6.83623 14.9225 6.7595 14.9536C6.68277 14.9847 6.6006 15.0005 6.51771 15Z"
        fill="#B1C7E2" />
</svg>
