<svg fill="none" height="21" viewBox="0 0 20 21" width="20"
    xmlns="http://www.w3.org/2000/svg">
    <path
        d="M13.4824 9.18994C13.3812 9.58121 13.1573 9.93042 12.8408 10.1841C12.5031 10.4546 12.0821 10.5994 11.6494 10.5952V10.5962H7.28711V15.4604L7.29492 15.564C7.32518 15.8051 7.43865 16.0297 7.61621 16.1987C7.8189 16.3915 8.08951 16.4961 8.36914 16.4897H13.5654L13.6533 16.4976C13.74 16.5124 13.8219 16.5489 13.8916 16.604H13.8926L15.8379 18.1538V17.0044C15.839 16.8672 15.8945 16.7356 15.9922 16.6392C16.0898 16.543 16.2214 16.4892 16.3584 16.4897H16.6123C16.8921 16.5007 17.1649 16.4009 17.3711 16.2114C17.5762 16.0229 17.6992 15.7611 17.7129 15.4829V10.2017L17.7031 10.0972C17.6683 9.85674 17.5515 9.63408 17.3711 9.46826C17.165 9.27885 16.892 9.17901 16.6123 9.18994H13.4824ZM4.16211 11.4351L6.10742 9.88623C6.2006 9.81258 6.3158 9.77165 6.43457 9.771H11.6514C11.9257 9.77728 12.1918 9.67497 12.3906 9.48584C12.5889 9.29719 12.7049 9.03762 12.7129 8.76416V3.48096L12.7051 3.37842C12.6753 3.14226 12.5645 2.92189 12.3906 2.75635C12.192 2.56741 11.9264 2.46502 11.6523 2.47119H3.3877C3.10797 2.46026 2.83505 2.5601 2.62891 2.74951C2.4227 2.93903 2.29972 3.20312 2.28711 3.48291V8.76025L2.29688 8.86377C2.33162 9.10422 2.4485 9.32683 2.62891 9.49268C2.83504 9.68213 3.10793 9.78192 3.3877 9.771H3.6416C3.77859 9.77043 3.91023 9.82427 4.00781 9.92041C4.10555 10.0168 4.16097 10.1483 4.16211 10.2856V11.4351ZM13.5371 8.36475H16.6084C17.1058 8.35274 17.5878 8.53824 17.9492 8.88037C18.3113 9.22317 18.5226 9.69544 18.5371 10.1938V15.4858C18.5226 15.9842 18.3113 16.4565 17.9492 16.7993C17.6008 17.1291 17.1405 17.3109 16.6621 17.313V18.8765C16.6621 18.9662 16.6376 19.0544 16.5898 19.1304C16.5421 19.2063 16.4734 19.2672 16.3926 19.3062C16.3119 19.345 16.2218 19.36 16.1328 19.3501C16.0437 19.3401 15.9589 19.3054 15.8887 19.2495L13.4619 17.3149H8.37207V17.314C7.87395 17.321 7.39305 17.1313 7.03516 16.7847C6.677 16.4378 6.47162 15.9628 6.46289 15.4644V10.6567L4.11133 12.5308C4.04109 12.5866 3.95635 12.6214 3.86719 12.6313C3.77815 12.6412 3.68812 12.6263 3.60742 12.5874C3.52673 12.5485 3.45887 12.4874 3.41113 12.4116C3.36338 12.3357 3.33796 12.2474 3.33789 12.1577V10.5942C2.85955 10.5922 2.39918 10.4104 2.05078 10.0806C1.6887 9.73776 1.4774 9.2655 1.46289 8.76709V3.4751C1.47741 2.97675 1.68876 2.50441 2.05078 2.16162C2.4122 1.81949 2.89414 1.63496 3.3916 1.64697V1.646H11.6504V1.64697C12.1427 1.64039 12.618 1.82778 12.9717 2.17041C13.3257 2.51341 13.5285 2.98323 13.5371 3.47607V8.36475Z"
        fill="#ECEEF1" stroke="#ECEEF1" stroke-width="0.2" />
    <path
        d="M9.13636 7.53056C9.50369 7.11493 9.69994 6.57557 9.6856 6.02107C9.67126 5.46656 9.44739 4.93807 9.05906 4.54198C8.67073 4.1459 8.14677 3.91162 7.59266 3.88632C7.03854 3.86101 6.49541 4.04656 6.0726 4.4056C5.64979 4.76465 5.37869 5.27053 5.31386 5.82143C5.24904 6.37232 5.39532 6.92731 5.72324 7.37469C6.05117 7.82207 6.5364 8.12862 7.08125 8.23263C7.62611 8.33663 8.19013 8.23038 8.6598 7.93524L8.83667 8.13618C8.89154 8.19834 8.96885 8.23616 9.0516 8.24132C9.13435 8.24648 9.21576 8.21855 9.27792 8.16368C9.34008 8.10882 9.3779 8.0315 9.38306 7.94875C9.38821 7.866 9.36029 7.78459 9.30542 7.72243L9.13636 7.53056ZM7.4998 7.64681C7.19076 7.64681 6.88867 7.55517 6.63172 7.38348C6.37477 7.21179 6.1745 6.96776 6.05623 6.68225C5.93797 6.39674 5.90703 6.08257 5.96732 5.77948C6.02761 5.47638 6.17642 5.19797 6.39494 4.97945C6.61346 4.76093 6.89187 4.61212 7.19497 4.55183C7.49806 4.49154 7.81223 4.52248 8.09774 4.64075C8.38325 4.75901 8.62728 4.95928 8.79897 5.21623C8.97066 5.47318 9.0623 5.77527 9.0623 6.08431C9.06082 6.43767 8.93841 6.77987 8.71542 7.05399L8.03792 6.28587C7.98309 6.22371 7.90582 6.18587 7.8231 6.18069C7.74038 6.1755 7.65899 6.20339 7.59683 6.25821C7.53467 6.31304 7.49683 6.39031 7.49165 6.47303C7.48646 6.55575 7.51435 6.63715 7.56917 6.69931L8.23511 7.45431C8.0099 7.5788 7.75712 7.64498 7.4998 7.64681ZM14.3504 14.579L12.7892 10.8618L12.7879 10.8587C12.764 10.8021 12.7239 10.7537 12.6726 10.7198C12.6214 10.6858 12.5613 10.6677 12.4998 10.6677C12.4383 10.6677 12.3782 10.6858 12.327 10.7198C12.2757 10.7537 12.2356 10.8021 12.2117 10.8587L12.2104 10.8618L10.6492 14.579C10.6171 14.6554 10.6166 14.7415 10.6479 14.8182C10.6793 14.8949 10.7398 14.9561 10.8162 14.9882C10.8926 15.0203 10.9787 15.0208 11.0554 14.9894C11.1321 14.9581 11.1933 14.8976 11.2254 14.8212L11.6595 13.7877H13.3401L13.7745 14.8212C13.808 14.8954 13.8692 14.9536 13.945 14.9834C14.0209 15.0132 14.1053 15.0122 14.1804 14.9806C14.2555 14.9491 14.3153 14.8894 14.3471 14.8144C14.3788 14.7393 14.38 14.6549 14.3504 14.579ZM11.922 13.1627L12.4998 11.7868L13.0779 13.1627H11.922Z"
        fill="#ECEEF1" />
</svg>
