<svg fill="none" height="21" viewBox="0 0 20 21" width="20"
    xmlns="http://www.w3.org/2000/svg">
    <path
        d="M3.32031 1.14429L3.41309 1.14819C3.62948 1.16671 3.8356 1.25227 4.00195 1.39429C4.19184 1.55643 4.31713 1.78136 4.35547 2.02808L4.70215 4.22046H17.6709C17.9318 4.21948 18.1894 4.27979 18.4229 4.39624C18.6561 4.51263 18.8586 4.68259 19.0146 4.89136C19.1732 5.10022 19.2815 5.34347 19.3291 5.60132C19.3767 5.85921 19.3626 6.125 19.2891 6.37671L17.5137 12.4851C17.4113 12.8353 17.1979 13.1438 16.9062 13.363C16.6147 13.5821 16.2602 13.7009 15.8955 13.7019H5.38477C4.77523 13.702 4.2795 14.1979 4.2793 14.8074C4.2793 15.4171 4.7751 15.9137 5.38477 15.9138H17.3848C17.4993 15.9139 17.6093 15.9589 17.6904 16.0398C17.7716 16.1209 17.8174 16.2317 17.8174 16.3464C17.8173 16.4611 17.7715 16.571 17.6904 16.6521C17.6093 16.7332 17.4994 16.779 17.3848 16.7791H15.627C15.8487 17.1034 15.9705 17.4876 15.9707 17.8845C15.9707 18.9717 15.0872 19.8562 14 19.8562C12.9129 19.856 12.0293 18.9716 12.0293 17.8845C12.0295 17.4876 12.1513 17.1033 12.373 16.7791H8.24219C8.464 17.1034 8.58676 17.4875 8.58691 17.8845C8.58691 18.9717 7.7021 19.8562 6.61523 19.8562C5.5284 19.8561 4.64453 18.9717 4.64453 17.8845C4.64477 17.4717 4.77571 17.072 5.01465 16.74C4.10446 16.566 3.41406 15.7677 3.41406 14.8074C3.41475 14.2946 3.61436 13.802 3.97168 13.4343C4.29608 13.1006 4.72746 12.8952 5.1875 12.8484L3.50098 2.16382C3.48652 2.07398 3.41091 2.00952 3.32031 2.00952H1.07715C0.962418 2.0095 0.852612 1.9637 0.771484 1.88257C0.690388 1.80143 0.644531 1.69162 0.644531 1.5769C0.644553 1.46218 0.690358 1.35237 0.771484 1.27124C0.852612 1.19011 0.96242 1.14431 1.07715 1.14429H3.32031ZM6.61523 16.7791C6.00595 16.7791 5.50985 17.2749 5.50977 17.8845C5.50977 18.4942 6.00561 18.9899 6.61523 18.99C7.22497 18.99 7.7207 18.4943 7.7207 17.8845C7.72062 17.2749 7.22463 16.7791 6.61523 16.7791ZM14 16.7791C13.3903 16.7791 12.8946 17.2749 12.8945 17.8845C12.8945 18.4942 13.3906 18.99 14 18.99C14.6094 18.99 15.1055 18.4943 15.1055 17.8845C15.1054 17.2748 14.6096 16.7791 14 16.7791ZM6.0625 12.8367H15.8945C16.0721 12.8362 16.2448 12.7783 16.3867 12.6716C16.5287 12.5649 16.6328 12.4154 16.6826 12.2449L18.458 6.13647C18.4938 6.01392 18.5008 5.88409 18.4775 5.75854C18.4601 5.66463 18.4261 5.5748 18.3779 5.49292L18.3242 5.41284C18.1873 5.23096 17.9883 5.11796 17.7666 5.09253L17.6709 5.08667H4.83789L6.0625 12.8367Z"
        fill="#ECEEF1" stroke="#ECEEF1" stroke-width="0.25" />
    <path d="M11.6669 6.40283V11.2639M9.23633 8.83339H14.0974" stroke="#064698"
        stroke-linecap="round" stroke-linejoin="round" stroke-width="1.2" />
</svg>
