<svg fill="none" height="21" viewBox="0 0 20 21" width="20"
    xmlns="http://www.w3.org/2000/svg">
    <path
        d="M15.749 1.14429C16.2128 1.14429 16.5898 1.52131 16.5898 1.98511V3.45483H17.2275C17.6912 3.45498 18.0684 3.83296 18.0684 4.29663V19.0154C18.0682 19.479 17.691 19.8561 17.2275 19.8562H7.27637C6.81266 19.8562 6.43569 19.479 6.43555 19.0154V17.5447H5.79785C5.334 17.5447 4.95703 17.1676 4.95703 16.7039V1.98511C4.95703 1.52131 5.3341 1.14429 5.79785 1.14429H15.749ZM16.5898 16.7039C16.5898 17.1676 16.2128 17.5447 15.749 17.5447H7.10156V19.0154C7.10173 19.1113 7.1804 19.1892 7.27637 19.1892H17.2275C17.3235 19.1891 17.4012 19.1111 17.4014 19.0154V4.29663C17.4014 4.20065 17.3235 4.12197 17.2275 4.12183H16.5898V16.7039ZM5.79785 1.8103C5.70178 1.8103 5.62305 1.88903 5.62305 1.98511V16.7039C5.62305 16.8001 5.70192 16.8787 5.79785 16.8787H15.749C15.845 16.8787 15.9238 16.8001 15.9238 16.7039V1.98511C15.9238 1.88903 15.8451 1.8103 15.749 1.8103H5.79785Z"
        fill="#ECEEF1" stroke="#ECEEF1" stroke-width="0.25" />
    <path
        d="M7.68693 2.60938C6.93242 2.60938 6.31836 3.22236 6.31836 3.97578C6.31836 4.72946 6.93242 5.34244 7.68693 5.34244C8.44035 5.34244 9.05334 4.72946 9.05334 3.97578C9.05334 3.22236 8.44035 2.60938 7.68693 2.60938ZM7.68693 4.92601C7.16178 4.92601 6.73479 4.49981 6.73479 3.97578C6.73479 3.45201 7.16178 3.02581 7.68693 3.02581C8.2107 3.02581 8.63691 3.45201 8.63691 3.97578C8.63691 4.49984 8.21074 4.92601 7.68693 4.92601Z"
        fill="#ECEEF1" />
    <path
        d="M7.97215 3.53101L7.52427 3.97889L7.39955 3.85445C7.38022 3.83511 7.35727 3.81977 7.33202 3.80931C7.30676 3.79884 7.27968 3.79346 7.25234 3.79346C7.225 3.79346 7.19793 3.79884 7.17267 3.80931C7.14741 3.81977 7.12447 3.83511 7.10514 3.85445C7.02379 3.9358 7.02379 4.06781 7.10514 4.14886L7.37705 4.42052C7.39637 4.43988 7.41932 4.45523 7.44458 4.4657C7.46984 4.47617 7.49693 4.48155 7.52427 4.48153C7.55162 4.48158 7.57871 4.47621 7.60398 4.46574C7.62925 4.45527 7.65219 4.4399 7.6715 4.42052L8.26659 3.82543C8.30522 3.78629 8.3268 3.73347 8.32662 3.67849C8.32644 3.6235 8.30451 3.57082 8.26563 3.53194C8.22675 3.49306 8.17406 3.47115 8.11908 3.47097C8.06409 3.4708 8.01127 3.49238 7.97215 3.53101ZM15.0191 2.97144H9.83197C9.77742 2.97245 9.72545 2.99483 9.68723 3.03377C9.64902 3.0727 9.62761 3.12508 9.62761 3.17963C9.62761 3.23419 9.64902 3.28657 9.68723 3.3255C9.72545 3.36443 9.77742 3.38681 9.83197 3.38783H15.0191C15.0737 3.38681 15.1256 3.36443 15.1638 3.3255C15.2021 3.28657 15.2235 3.23419 15.2235 3.17963C15.2235 3.12508 15.2021 3.0727 15.1638 3.03377C15.1256 2.99483 15.0737 2.97245 15.0191 2.97144ZM15.0191 3.76745H9.83197C9.77742 3.76846 9.72545 3.79084 9.68723 3.82978C9.64902 3.86871 9.62761 3.92109 9.62761 3.97564C9.62761 4.0302 9.64902 4.08257 9.68723 4.12151C9.72545 4.16044 9.77742 4.18282 9.83197 4.18384H15.0191C15.0737 4.18282 15.1256 4.16044 15.1638 4.12151C15.2021 4.08257 15.2235 4.0302 15.2235 3.97564C15.2235 3.92109 15.2021 3.86871 15.1638 3.82978C15.1256 3.79084 15.0737 3.76846 15.0191 3.76745ZM9.83197 4.9801H13.0268C13.0813 4.97909 13.1333 4.95671 13.1715 4.91777C13.2097 4.87884 13.2311 4.82646 13.2311 4.7719C13.2311 4.71735 13.2097 4.66497 13.1715 4.62604C13.1333 4.5871 13.0813 4.56472 13.0268 4.56371H9.83197C9.77742 4.56472 9.72545 4.5871 9.68723 4.62604C9.64902 4.66497 9.62761 4.71735 9.62761 4.7719C9.62761 4.82646 9.64902 4.87884 9.68723 4.91777C9.72545 4.95671 9.77742 4.97909 9.83197 4.9801ZM7.68693 6.18872C6.93242 6.18872 6.31836 6.8017 6.31836 7.55513C6.31836 8.3088 6.93242 8.92178 7.68693 8.92178C8.44036 8.92178 9.05334 8.3088 9.05334 7.55513C9.05334 6.8017 8.44036 6.18872 7.68693 6.18872ZM7.68693 8.50535C7.16179 8.50535 6.73479 8.07915 6.73479 7.55513C6.73479 7.03135 7.16179 6.60515 7.68693 6.60515C8.2107 6.60515 8.63691 7.03135 8.63691 7.55513C8.63691 8.07919 8.21074 8.50535 7.68693 8.50535Z"
        fill="#ECEEF1" />
    <path
        d="M7.9741 7.11036L7.52623 7.55823L7.4015 7.43351C7.38218 7.41417 7.35923 7.39882 7.33397 7.38835C7.30871 7.37789 7.28164 7.3725 7.2543 7.3725C7.22696 7.3725 7.19988 7.37789 7.17462 7.38835C7.14936 7.39882 7.12642 7.41417 7.10709 7.43351C7.08775 7.45283 7.07241 7.47578 7.06194 7.50104C7.05147 7.5263 7.04608 7.55337 7.04608 7.58071C7.04608 7.60806 7.05147 7.63513 7.06194 7.66039C7.07241 7.68565 7.08775 7.7086 7.10709 7.72792L7.379 7.99983C7.41968 8.0405 7.47282 8.06084 7.52623 8.06084C7.57963 8.06084 7.63278 8.0405 7.67345 7.99983L8.26855 7.40474C8.30758 7.36569 8.32951 7.31274 8.3295 7.25752C8.3295 7.20231 8.30756 7.14936 8.26851 7.11032C8.22946 7.07129 8.17651 7.04936 8.1213 7.04937C8.06608 7.04937 8.01314 7.07131 7.9741 7.11036ZM15.0211 6.55078H9.83392C9.77937 6.5518 9.7274 6.57418 9.68919 6.61311C9.65097 6.65205 9.62956 6.70442 9.62956 6.75898C9.62956 6.81353 9.65097 6.86591 9.68919 6.90484C9.7274 6.94378 9.77937 6.96616 9.83392 6.96718H15.0211C15.0756 6.96616 15.1276 6.94378 15.1658 6.90484C15.204 6.86591 15.2254 6.81353 15.2254 6.75898C15.2254 6.70442 15.204 6.65205 15.1658 6.61311C15.1276 6.57418 15.0756 6.5518 15.0211 6.55078ZM15.0211 7.34675H9.83392C9.77937 7.34777 9.7274 7.37015 9.68919 7.40909C9.65097 7.44802 9.62956 7.5004 9.62956 7.55495C9.62956 7.60951 9.65097 7.66188 9.68919 7.70082C9.7274 7.73975 9.77937 7.76213 9.83392 7.76315H15.0211C15.0756 7.76213 15.1276 7.73975 15.1658 7.70082C15.204 7.66188 15.2254 7.60951 15.2254 7.55495C15.2254 7.5004 15.204 7.44802 15.1658 7.40909C15.1276 7.37015 15.0756 7.34777 15.0211 7.34675ZM9.83392 8.55945H13.0287C13.0832 8.55843 13.1352 8.53605 13.1734 8.49712C13.2117 8.45818 13.2331 8.40581 13.2331 8.35125C13.2331 8.29669 13.2117 8.24432 13.1734 8.20538C13.1352 8.16645 13.0832 8.14407 13.0287 8.14305H9.83392C9.77937 8.14407 9.7274 8.16645 9.68919 8.20538C9.65097 8.24432 9.62956 8.29669 9.62956 8.35125C9.62956 8.40581 9.65097 8.45818 9.68919 8.49712C9.7274 8.53605 9.77937 8.55843 9.83392 8.55945ZM7.68888 9.76806C6.93438 9.76806 6.32031 10.381 6.32031 11.1345C6.32031 11.8879 6.93438 12.5009 7.68888 12.5009C8.44231 12.5009 9.05529 11.8879 9.05529 11.1345C9.05529 10.381 8.44231 9.76806 7.68888 9.76806ZM7.68888 12.0844C7.16374 12.0844 6.73674 11.6582 6.73674 11.1344C6.73674 10.6107 7.16374 10.1845 7.68888 10.1845C8.21266 10.1845 8.63886 10.6107 8.63886 11.1344C8.63886 11.6582 8.21269 12.0844 7.68888 12.0844Z"
        fill="#ECEEF1" />
    <path
        d="M7.59404 11.0591L7.14616 11.507L7.02144 11.3822C7.00211 11.3629 6.97917 11.3476 6.95391 11.3371C6.92865 11.3266 6.90158 11.3212 6.87423 11.3212C6.84689 11.3212 6.81982 11.3266 6.79456 11.3371C6.7693 11.3476 6.74635 11.3629 6.72703 11.3822C6.70769 11.4016 6.69234 11.4245 6.68187 11.4498C6.6714 11.475 6.66602 11.5021 6.66602 11.5294C6.66602 11.5568 6.6714 11.5839 6.68187 11.6091C6.69234 11.6344 6.70769 11.6573 6.72703 11.6767L6.99894 11.9486C7.03961 11.9892 7.09276 12.0096 7.14616 12.0096C7.19956 12.0096 7.25271 11.9892 7.29339 11.9486L7.88848 11.3535C7.90781 11.3341 7.92314 11.3112 7.9336 11.2859C7.94406 11.2607 7.94944 11.2336 7.94944 11.2063C7.94944 11.1789 7.94405 11.1518 7.93358 11.1266C7.92312 11.1013 7.90778 11.0784 7.88845 11.0591C7.86911 11.0397 7.84616 11.0244 7.8209 11.0139C7.79564 11.0035 7.76857 10.9981 7.74123 10.9981C7.71389 10.9981 7.68682 11.0035 7.66157 11.014C7.63631 11.0244 7.61336 11.0398 7.59404 11.0591ZM14.641 10.4995H9.45386C9.39931 10.5005 9.34734 10.5229 9.30912 10.5618C9.27091 10.6008 9.2495 10.6532 9.2495 10.7077C9.2495 10.7623 9.27091 10.8146 9.30912 10.8536C9.34734 10.8925 9.39931 10.9149 9.45386 10.9159H14.641C14.6956 10.9149 14.7475 10.8925 14.7857 10.8536C14.824 10.8146 14.8454 10.7623 14.8454 10.7077C14.8454 10.6532 14.824 10.6008 14.7857 10.5618C14.7475 10.5229 14.6956 10.5005 14.641 10.4995ZM14.641 11.2955H9.45386C9.39931 11.2965 9.34734 11.3189 9.30912 11.3578C9.27091 11.3967 9.2495 11.4491 9.2495 11.5037C9.2495 11.5582 9.27091 11.6106 9.30912 11.6495C9.34734 11.6885 9.39931 11.7109 9.45386 11.7119H14.641C14.6956 11.7109 14.7475 11.6885 14.7857 11.6495C14.824 11.6106 14.8454 11.5582 14.8454 11.5037C14.8454 11.4491 14.824 11.3967 14.7857 11.3578C14.7475 11.3189 14.6956 11.2965 14.641 11.2955ZM9.45386 12.5082H12.6486C12.7032 12.5072 12.7552 12.4848 12.7934 12.4458C12.8316 12.4069 12.853 12.3545 12.853 12.3C12.853 12.2454 12.8316 12.193 12.7934 12.1541C12.7552 12.1152 12.7032 12.0928 12.6486 12.0918H9.45386C9.39931 12.0928 9.34734 12.1152 9.30912 12.1541C9.27091 12.193 9.2495 12.2454 9.2495 12.3C9.2495 12.3545 9.27091 12.4069 9.30912 12.4458C9.34734 12.4848 9.39931 12.5072 9.45386 12.5082Z"
        fill="#ECEEF1" />
    <path
        d="M3.15723 5.05371C3.25166 5.05371 3.35442 5.09971 3.39648 5.20117L4.27344 7.32422H4.27246C4.29855 7.3647 4.3137 7.41074 4.31445 7.45898L4.31543 7.45996V7.72461C4.31494 8.42864 4.31288 10.8243 4.30859 18.1348C4.30859 18.5834 3.94378 18.9482 3.49512 18.9482H2.82031C2.37165 18.9482 2.00687 18.5834 2.00684 18.1348V7.46289C2.00692 7.43533 2.01601 7.4093 2.01953 7.39648L2.05762 7.29297C2.07863 7.23972 2.10797 7.16811 2.14258 7.08301C2.21194 6.91245 2.30431 6.68748 2.40234 6.4502C2.59849 5.97545 2.81705 5.44933 2.91895 5.20117C2.96097 5.0999 3.06293 5.05385 3.15723 5.05371ZM2.52344 18.1348C2.52344 18.2985 2.65653 18.4316 2.82031 18.4316H3.49512C3.6589 18.4316 3.79199 18.2985 3.79199 18.1348V17.4365H2.52344V18.1348ZM2.52344 16.9199H3.79199V7.72168H2.52344V16.9199ZM2.64941 7.20508H3.66602L3.15723 5.97559L2.64941 7.20508Z"
        fill="#ECEEF1" stroke="#ECEEF1" stroke-width="0.1" />
</svg>
