<svg fill="none" height="21" viewBox="0 0 20 21" width="20"
    xmlns="http://www.w3.org/2000/svg">
    <g clip-path="url(#clip0_7329_29231)">
        <path
            d="M11.5537 2.85474C12.9764 2.85474 14.1367 4.01507 14.1367 5.43774V7.07739C14.1367 7.38239 13.89 7.62915 13.585 7.62915C13.2801 7.62894 13.0332 7.38225 13.0332 7.07739V5.43774C13.0332 4.62098 12.3666 3.95435 11.5498 3.95435H3.36719C2.55042 3.95435 1.88379 4.62098 1.88379 5.43774V15.5618C1.88379 16.3785 2.55042 17.0461 3.36719 17.0461H11.5459C12.3626 17.0461 13.0293 16.3785 13.0293 15.5618V13.9221C13.0294 13.6173 13.2762 13.3705 13.5811 13.3704C13.886 13.3704 14.1327 13.6172 14.1328 13.9221V15.5618C14.1328 16.9844 12.9725 18.1448 11.5498 18.1448H3.36719C1.94451 18.1448 0.78418 16.9844 0.78418 15.5618V5.43774C0.78418 4.01093 1.94456 2.85474 3.36719 2.85474H11.5537Z"
            fill="#ECEEF1" stroke="#ECEEF1" stroke-width="0.1" />
        <path
            d="M15.7217 14.273C15.8196 14.3709 15.9461 14.4199 16.0766 14.4199C16.2072 14.4199 16.3336 14.3709 16.4315 14.273L19.8539 10.8506C20.0497 10.6548 20.0497 10.3407 19.8539 10.1449L16.4315 6.72253C16.2357 6.52673 15.9216 6.52673 15.7258 6.72253C15.53 6.91833 15.53 7.23242 15.7258 7.42822L18.2957 9.99808H8.91775C8.64037 9.99808 8.41602 10.2224 8.41602 10.4998C8.41602 10.7772 8.64037 11.0015 8.91775 11.0015H18.2916L15.7217 13.5714C15.5259 13.7631 15.5259 14.0813 15.7217 14.273Z"
            fill="#ECEEF1" />
    </g>
    <defs>
        <clipPath id="clip0_7329_29231">
            <rect fill="white" height="20" transform="translate(0 0.5)"
                width="20" />
        </clipPath>
    </defs>
</svg>
