<svg fill="none" height="21" viewBox="0 0 20 21" width="20"
    xmlns="http://www.w3.org/2000/svg">
    <path
        d="M7.95312 1.40161C8.01849 1.40164 8.08313 1.41857 8.13965 1.45142L15.4658 5.68384H15.4678C15.5237 5.71724 15.5701 5.76543 15.6016 5.82251C15.6326 5.87895 15.6477 5.94268 15.6465 6.00708V8.44653H16.5869C16.8166 8.44879 17.0395 8.52625 17.2217 8.66626C17.3831 8.79039 17.5021 8.95897 17.5703 9.14966H18.4736C18.812 9.15096 19.1361 9.28693 19.375 9.52661C19.6138 9.76628 19.7478 10.0906 19.748 10.429V18.3235L19.7422 18.4485C19.7295 18.5722 19.6986 18.6937 19.6504 18.8088C19.586 18.9624 19.4914 19.1019 19.373 19.219C19.2545 19.3361 19.1134 19.4288 18.959 19.4915C18.8049 19.5539 18.6399 19.5846 18.4736 19.5833V19.5842H13.1211V19.5833C12.9549 19.5846 12.7896 19.5542 12.6357 19.4915C12.4818 19.4287 12.3425 19.3352 12.2246 19.218C12.1066 19.1007 12.0129 18.9615 11.9492 18.8079C11.8856 18.6543 11.8531 18.4897 11.8535 18.3235V16.8879L8.14551 19.0266L8.14453 19.0276C8.0867 19.0599 8.02133 19.0765 7.95508 19.0764C7.8896 19.0764 7.82526 19.0593 7.76855 19.0266L0.438477 14.7942C0.381709 14.7614 0.334534 14.7142 0.301758 14.6575C0.269033 14.6007 0.251955 14.5364 0.251953 14.4709V6.00708L0.263672 5.9104C0.271963 5.8791 0.284544 5.8489 0.300781 5.82056C0.333389 5.76376 0.380843 5.71669 0.4375 5.68384L7.7666 1.45142C7.82316 1.41854 7.88771 1.40161 7.95312 1.40161ZM0.998047 14.2551L7.5957 18.0559V10.4534L0.998047 6.65259V14.2551ZM8.3418 10.4534V18.0559L11.8535 16.0256V10.429L11.8584 10.304C11.8858 10.0122 12.0138 9.73763 12.2217 9.52759C12.4593 9.28768 12.7825 9.15133 13.1201 9.14966H14.0244C14.0926 8.95912 14.2108 8.79033 14.3721 8.66626C14.5257 8.54813 14.7091 8.47765 14.9004 8.4563V6.65259L8.3418 10.4534ZM15.0059 9.1936C14.9273 9.19372 14.8515 9.22494 14.7959 9.28052C14.7403 9.33616 14.709 9.41184 14.709 9.49048V9.51685C14.709 9.59544 14.7404 9.67116 14.7959 9.72681C14.8515 9.78239 14.9273 9.81361 15.0059 9.81372H16.5957C16.6743 9.81361 16.7501 9.78239 16.8057 9.72681C16.8611 9.67116 16.8926 9.59544 16.8926 9.51685V9.49048C16.8926 9.41184 16.8612 9.33616 16.8057 9.28052C16.7501 9.22494 16.6743 9.19372 16.5957 9.1936H15.0059ZM4.96484 8.08032L7.95508 9.80688L14.5381 6.0061L11.5479 4.27954L4.96484 8.08032ZM1.37207 6.0061L4.21777 7.64868L10.7998 3.8479L7.9541 2.20532L1.37207 6.0061ZM12.5996 18.3245C12.5993 18.3923 12.6127 18.46 12.6387 18.5227C12.6647 18.5854 12.7037 18.642 12.752 18.6897C12.8002 18.7374 12.857 18.7757 12.9199 18.801C12.983 18.8263 13.0511 18.8383 13.1191 18.8372H18.4756C18.5439 18.8384 18.6123 18.8262 18.6758 18.801C18.7391 18.7758 18.7969 18.7383 18.8457 18.6907C18.8946 18.6429 18.9342 18.5857 18.9609 18.5227C18.9876 18.4598 19.0016 18.3918 19.002 18.3235V10.429C19.0019 10.2884 18.9458 10.1536 18.8467 10.054C18.7723 9.9791 18.6781 9.92835 18.5762 9.90747L18.4727 9.89673H17.5576C17.4867 10.0809 17.3669 10.2422 17.207 10.3596C17.027 10.4919 16.8093 10.5617 16.5859 10.5598V10.5608H15.0088V10.5598C14.7852 10.5618 14.567 10.492 14.3867 10.3596C14.2269 10.2422 14.1071 10.0808 14.0361 9.89673H13.1211C13.0522 9.89735 12.9843 9.91187 12.9209 9.93872C12.8574 9.96568 12.7994 10.0048 12.751 10.054C12.7025 10.1033 12.6635 10.1617 12.6377 10.2258C12.6118 10.29 12.5989 10.3588 12.5996 10.428V18.3245Z"
        fill="#ECEEF1" stroke="#ECEEF1" stroke-width="0.2" />
    <path
        d="M13.4355 13.1953H13.7217C13.7943 13.1953 13.8638 13.1665 13.9151 13.1152C13.9664 13.0639 13.9952 12.9944 13.9952 12.9219C13.9952 12.8494 13.9664 12.7798 13.9151 12.7285C13.8638 12.6772 13.7943 12.6484 13.7217 12.6484H13.711V11.9063H14.4651C14.4823 11.9612 14.517 12.0091 14.564 12.0424C14.6109 12.0758 14.6675 12.0928 14.7251 12.0909C14.7977 12.0911 14.8674 12.0625 14.919 12.0113C14.9705 11.9602 14.9997 11.8907 15 11.8181V11.6341C14.9994 11.5611 14.97 11.4914 14.9183 11.4399C14.8665 11.3885 14.7966 11.3595 14.7236 11.3594H13.4355C13.3997 11.3596 13.3642 11.3668 13.3311 11.3807C13.298 11.3946 13.268 11.4149 13.2428 11.4405C13.2176 11.466 13.1977 11.4962 13.1842 11.5294C13.1707 11.5627 13.1638 11.5982 13.1641 11.6341V12.9222C13.1639 12.958 13.1707 12.9935 13.1843 13.0266C13.1978 13.0597 13.2178 13.0898 13.243 13.1152C13.2682 13.1406 13.2982 13.1607 13.3313 13.1745C13.3643 13.1882 13.3997 13.1953 13.4355 13.1953ZM13.4375 15.6953H14.7266C14.7991 15.6953 14.8687 15.6665 14.9199 15.6152C14.9712 15.5639 15 15.4944 15 15.4219V14.1328C15 14.0603 14.9712 13.9907 14.9199 13.9395C14.8687 13.8882 14.7991 13.8594 14.7266 13.8594H13.4375C13.365 13.8594 13.2954 13.8882 13.2442 13.9395C13.1929 13.9907 13.1641 14.0603 13.1641 14.1328V15.4219C13.1641 15.4944 13.1929 15.5639 13.2442 15.6152C13.2954 15.6665 13.365 15.6953 13.4375 15.6953ZM13.711 14.4063H14.4531V15.1484H13.711V14.4063ZM13.7218 17.6484H13.711V16.9063H14.4504C14.4518 16.9782 14.4813 17.0466 14.5326 17.097C14.584 17.1474 14.653 17.1757 14.7249 17.1757C14.7968 17.1758 14.8659 17.1477 14.9174 17.0974C14.9688 17.0471 14.9985 16.9787 15 16.9068V16.6433C14.9997 16.5694 14.9708 16.4985 14.9192 16.4455C14.8676 16.3925 14.7975 16.3616 14.7236 16.3594H13.4355C13.3621 16.3618 13.2927 16.3929 13.2419 16.446C13.1912 16.4991 13.1632 16.5699 13.1641 16.6433V17.9314C13.164 17.9667 13.1711 18.0017 13.1848 18.0342C13.1985 18.0667 13.2187 18.0962 13.244 18.1208C13.2693 18.1454 13.2993 18.1647 13.3322 18.1775C13.3651 18.1903 13.4002 18.1963 13.4355 18.1953H13.7218C13.7943 18.1953 13.8638 18.1665 13.9151 18.1152C13.9664 18.0639 13.9952 17.9944 13.9952 17.9219C13.9952 17.8494 13.9664 17.7798 13.9151 17.7285C13.8638 17.6772 13.7943 17.6484 13.7218 17.6484Z"
        fill="#064698" />
    <path
        d="M15.353 11.695L14.5522 12.4957L14.3086 12.2521C14.2832 12.2267 14.2531 12.2066 14.2199 12.1928C14.1867 12.1791 14.1512 12.172 14.1152 12.172C14.0793 12.172 14.0438 12.1791 14.0106 12.1928C13.9774 12.2066 13.9473 12.2267 13.9219 12.2521C13.8965 12.2775 13.8764 12.3076 13.8626 12.3408C13.8489 12.374 13.8418 12.4096 13.8418 12.4455C13.8418 12.4814 13.8489 12.5169 13.8626 12.5501C13.8764 12.5833 13.8965 12.6134 13.9219 12.6388L14.3589 13.0758C14.3843 13.1012 14.4144 13.1213 14.4476 13.1351C14.4808 13.1488 14.5163 13.1559 14.5522 13.1559C14.5882 13.1559 14.6237 13.1488 14.6569 13.1351C14.6901 13.1213 14.7202 13.1012 14.7456 13.0758L15.7398 12.0816C15.7911 12.0303 15.8199 11.9607 15.8199 11.8882C15.8199 11.8157 15.7911 11.7461 15.7398 11.6948C15.6885 11.6436 15.619 11.6147 15.5465 11.6147C15.4739 11.6147 15.4044 11.6436 15.3531 11.6948L15.353 11.695ZM15.353 16.7437L14.5522 17.5445L14.3086 17.3009C14.2832 17.2755 14.2531 17.2554 14.2199 17.2416C14.1867 17.2279 14.1512 17.2208 14.1152 17.2208C14.0793 17.2208 14.0438 17.2279 14.0106 17.2416C13.9774 17.2554 13.9473 17.2755 13.9219 17.3009C13.8965 17.3263 13.8764 17.3564 13.8626 17.3896C13.8489 17.4228 13.8418 17.4583 13.8418 17.4943C13.8418 17.5302 13.8489 17.5657 13.8626 17.5989C13.8764 17.6321 13.8965 17.6622 13.9219 17.6876L14.3589 18.1246C14.3843 18.15 14.4144 18.1701 14.4476 18.1838C14.4808 18.1976 14.5163 18.2047 14.5522 18.2047C14.5882 18.2047 14.6237 18.1976 14.6569 18.1838C14.6901 18.1701 14.7202 18.15 14.7456 18.1246L15.7398 17.1303C15.7911 17.0791 15.8199 17.0095 15.8199 16.937C15.8199 16.8645 15.7911 16.7949 15.7398 16.7436C15.6885 16.6923 15.619 16.6635 15.5465 16.6635C15.4739 16.6635 15.4044 16.6923 15.3531 16.7436L15.353 16.7437ZM18.1583 12.0234H16.4409C16.3684 12.0234 16.2988 12.0522 16.2475 12.1035C16.1962 12.1548 16.1674 12.2243 16.1674 12.2968C16.1674 12.3694 16.1962 12.4389 16.2475 12.4902C16.2988 12.5415 16.3684 12.5703 16.4409 12.5703H18.1583C18.2308 12.5703 18.3004 12.5415 18.3516 12.4902C18.4029 12.4389 18.4317 12.3694 18.4317 12.2968C18.4317 12.2243 18.4029 12.1548 18.3516 12.1035C18.3004 12.0522 18.2308 12.0234 18.1583 12.0234ZM18.1583 14.5234H16.4409C16.3684 14.5234 16.2988 14.5522 16.2475 14.6035C16.1962 14.6548 16.1674 14.7243 16.1674 14.7968C16.1674 14.8694 16.1962 14.9389 16.2475 14.9902C16.2988 15.0415 16.3684 15.0703 16.4409 15.0703H18.1583C18.2308 15.0703 18.3004 15.0415 18.3516 14.9902C18.4029 14.9389 18.4317 14.8694 18.4317 14.7968C18.4317 14.7243 18.4029 14.6548 18.3516 14.6035C18.3004 14.5522 18.2308 14.5234 18.1583 14.5234ZM18.1583 17.0234H16.4409C16.3684 17.0234 16.2988 17.0522 16.2475 17.1035C16.1962 17.1548 16.1674 17.2243 16.1674 17.2968C16.1674 17.3694 16.1962 17.4389 16.2475 17.4902C16.2988 17.5415 16.3684 17.5703 16.4409 17.5703H18.1583C18.2308 17.5703 18.3004 17.5415 18.3516 17.4902C18.4029 17.4389 18.4317 17.3694 18.4317 17.2968C18.4317 17.2243 18.4029 17.1548 18.3516 17.1035C18.3004 17.0522 18.2308 17.0234 18.1583 17.0234Z"
        fill="#064698" />
</svg>
