<svg fill="none" height="21" viewBox="0 0 20 21" width="20"
    xmlns="http://www.w3.org/2000/svg">
    <path
        d="M14.165 10.0867C14.737 10.0867 15.2738 10.1698 15.7598 10.3337C16.2454 10.498 16.6687 10.7235 17.0156 11.0066C17.3454 11.2756 17.6387 11.6025 17.8877 11.9763C18.127 12.3351 18.321 12.7102 18.4639 13.0906C18.6013 13.4565 18.7159 13.8562 18.8047 14.2781C18.8924 14.6957 18.9518 15.0923 18.9814 15.4568C19.0106 15.8111 19.0252 16.181 19.0254 16.5554C19.0254 17.5476 18.6541 18.3577 17.9209 18.9529C17.1994 19.5383 16.2497 19.8308 15.1074 19.8308H4.68652C3.54401 19.8308 2.59433 19.5384 1.87305 18.9529C1.14011 18.3573 0.769531 17.5472 0.769531 16.5554C0.769543 16.1824 0.783547 15.8129 0.8125 15.4578C0.842143 15.0924 0.902296 14.6954 0.990234 14.2781C1.079 13.8562 1.19288 13.4564 1.33008 13.0906C1.47296 12.7099 1.66741 12.335 1.90625 11.9763C2.15513 11.6026 2.44862 11.2767 2.77832 11.0076C3.12551 10.7242 3.54793 10.4977 4.0332 10.3337C4.51911 10.1695 5.0566 10.0867 5.62891 10.0867C5.87722 10.0868 6.11074 10.1761 6.52441 10.406C6.78174 10.549 7.07823 10.7126 7.40625 10.8914C7.67996 11.0404 8.05655 11.1818 8.52637 11.3113C8.98112 11.4367 9.44223 11.5007 9.89648 11.5007C10.3512 11.5007 10.8122 11.4367 11.2666 11.3113C11.737 11.1817 12.1134 11.0404 12.3877 10.8914C12.6825 10.7309 12.9765 10.5688 13.2695 10.406C13.6836 10.1761 13.9166 10.0867 14.165 10.0867ZM14.0596 11.4871C13.7986 11.6323 13.506 11.7929 13.166 11.9783C12.7822 12.187 12.2915 12.3736 11.71 12.5339C11.1126 12.6986 10.5022 12.783 9.89648 12.783C9.29083 12.7829 8.6806 12.6988 8.08301 12.5339C7.50215 12.374 7.01211 12.1876 6.62891 11.9792C6.29644 11.7982 5.99538 11.6322 5.73438 11.4871C5.6263 11.427 5.55421 11.3918 5.50977 11.3708C5.16326 11.3808 4.84569 11.4341 4.56445 11.5291C4.2506 11.635 3.98763 11.7755 3.78125 11.9441C3.55731 12.127 3.3529 12.3547 3.1748 12.6218C2.98692 12.904 2.83616 13.1965 2.72559 13.491C2.63843 13.7232 2.56166 13.9744 2.49609 14.24L2.43359 14.5105C2.37476 14.7897 2.33105 15.0561 2.30176 15.3054L2.27734 15.5486C2.25079 15.8735 2.23732 16.2122 2.2373 16.5554C2.2373 17.1951 2.44775 17.6672 2.87402 18.0134C3.31286 18.3696 3.90145 18.5485 4.68652 18.5486H15.1074C15.8925 18.5486 16.4818 18.3699 16.9209 18.0134C17.347 17.6675 17.5573 17.1959 17.5576 16.5564L17.5469 16.0447C17.5402 15.8767 17.5299 15.7113 17.5166 15.5496V15.5486C17.4909 15.2325 17.4385 14.8833 17.3604 14.5105C17.2833 14.1443 17.1848 13.8012 17.0684 13.491C16.958 13.1968 16.8072 12.9039 16.6191 12.6218C16.4411 12.3545 16.2366 12.1269 16.0127 11.9441C15.8063 11.7757 15.5433 11.635 15.2295 11.5291C14.9478 11.434 14.6302 11.3807 14.2832 11.3708C14.2389 11.3917 14.1672 11.4273 14.0596 11.4871ZM9.76074 1.16968C11.2146 1.16968 12.4787 1.61494 13.5117 2.49585C14.545 3.37754 15.0732 4.46212 15.0732 5.71558C15.0732 6.96945 14.5447 8.05391 13.5117 8.9353C12.4787 9.81651 11.2148 10.2625 9.76074 10.2625C8.30725 10.2624 7.0438 9.8169 6.01074 8.93628V8.9353C4.97735 8.05383 4.44824 6.96956 4.44824 5.71558C4.44827 4.46188 4.97746 3.3773 6.01074 2.49585C7.04351 1.61494 8.30662 1.16969 9.76074 1.16968ZM9.76074 2.45093C8.68364 2.45094 7.79507 2.76628 7.03711 3.41284C6.27939 4.05916 5.91604 4.81052 5.91602 5.71558C5.91602 6.62092 6.2794 7.37213 7.03711 8.01831C7.7955 8.66495 8.68391 8.98021 9.76074 8.98022C10.8377 8.98022 11.7262 8.66502 12.4844 8.01831C13.242 7.37197 13.6055 6.62093 13.6055 5.71558C13.6055 4.81054 13.2419 4.05917 12.4844 3.41284C11.7263 2.76636 10.8376 2.45093 9.76074 2.45093Z"
        fill="#B1C7E2" stroke="#B1C7E2" stroke-width="0.2" />
</svg>
