<svg fill="none" height="21" viewBox="0 0 20 21" width="20"
    xmlns="http://www.w3.org/2000/svg">
    <mask fill="black" height="14"
        id="path-1-outside-1_7329_29219" maskUnits="userSpaceOnUse" width="14" x="-0.230469" y="6.4231">
        <rect fill="white" height="14" width="14" x="-0.230469" y="6.4231" />
        <path
            d="M12.1541 12.0385H11.8157C11.7535 12.0386 11.6929 12.0196 11.6419 11.984C11.5909 11.9485 11.5521 11.8981 11.5308 11.8397C11.4934 11.7417 11.453 11.645 11.4095 11.5496C11.3832 11.4929 11.375 11.4296 11.386 11.3681C11.397 11.3067 11.4267 11.2501 11.4711 11.2062L11.7123 10.9646C12.0704 10.6034 12.0698 10.0207 11.7108 9.66033L10.8412 8.79079C10.4803 8.43202 9.89749 8.43202 9.53661 8.79079L9.29538 9.03171C9.25133 9.0759 9.19478 9.10549 9.13337 9.1165C9.07195 9.1275 9.00864 9.11939 8.95199 9.09325C8.85616 9.04993 8.75931 9.00889 8.66153 8.97017C8.60287 8.94898 8.55219 8.91016 8.51644 8.85905C8.48069 8.80793 8.46162 8.74701 8.46184 8.68463V8.34617C8.46184 7.83636 8.04857 7.4231 7.53876 7.4231H6.30799C5.79819 7.4231 5.38492 7.83636 5.38492 8.34617V8.68463C5.38503 8.74678 5.36601 8.80746 5.33046 8.85844C5.2949 8.90941 5.24451 8.9482 5.18615 8.96956C5.08769 9.0071 4.99138 9.0474 4.89599 9.09079C4.83935 9.11699 4.77603 9.12513 4.7146 9.11413C4.65318 9.10312 4.59662 9.07349 4.55261 9.02925L4.31107 8.78802C3.95022 8.42948 3.36761 8.42948 3.00676 8.78802L2.13722 9.66033C1.77845 10.0212 1.77845 10.6041 2.13722 10.9649L2.37815 11.2062C2.42249 11.2501 2.45219 11.3067 2.46321 11.3681C2.47422 11.4296 2.46601 11.4929 2.43969 11.5496C2.39622 11.6451 2.35569 11.742 2.31815 11.84C2.29667 11.8987 2.25753 11.9493 2.20612 11.9848C2.15472 12.0204 2.09356 12.0391 2.03107 12.0385H1.69261C1.1828 12.0385 0.769531 12.4517 0.769531 12.9616V14.1923C0.769531 14.7021 1.1828 15.1154 1.69261 15.1154H2.03107C2.09322 15.1153 2.1539 15.1343 2.20487 15.1699C2.25584 15.2054 2.29464 15.2558 2.31599 15.3142C2.35353 15.4126 2.39384 15.5089 2.43722 15.6043C2.46354 15.6609 2.47176 15.7243 2.46075 15.7857C2.44973 15.8472 2.42003 15.9038 2.37569 15.9477L2.13445 16.1892C1.77592 16.5501 1.77592 17.1327 2.13445 17.4936L3.00399 18.3631C3.36488 18.7219 3.94772 18.7219 4.30861 18.3631L4.54984 18.1222C4.59389 18.078 4.65044 18.0484 4.71185 18.0374C4.77326 18.0264 4.83657 18.0345 4.89322 18.0606C4.98905 18.104 5.0859 18.145 5.18369 18.1837C5.24264 18.2047 5.29364 18.2434 5.32968 18.2945C5.36572 18.3456 5.38502 18.4067 5.38492 18.4692V18.8077C5.38492 19.3175 5.79819 19.7308 6.30799 19.7308H7.53876C8.04857 19.7308 8.46184 19.3175 8.46184 18.8077V18.4692C8.46173 18.4071 8.48074 18.3464 8.5163 18.2954C8.55186 18.2445 8.60224 18.2057 8.66061 18.1843C8.75907 18.1468 8.85538 18.1065 8.95076 18.0631C9.0074 18.0369 9.07073 18.0287 9.13215 18.0398C9.19358 18.0508 9.25013 18.0804 9.29415 18.1246L9.53569 18.3659C9.89703 18.7238 10.4795 18.7231 10.84 18.3643L11.7095 17.4948C12.0683 17.1339 12.0683 16.5511 11.7095 16.1902L11.4686 15.9489C11.4243 15.905 11.3946 15.8484 11.3835 15.787C11.3725 15.7255 11.3807 15.6622 11.4071 15.6056C11.4504 15.5097 11.4914 15.4129 11.5301 15.3151C11.5513 15.2564 11.5902 15.2057 11.6413 15.17C11.6924 15.1343 11.7533 15.1152 11.8157 15.1154H12.1541C12.664 15.1154 13.0772 14.7021 13.0772 14.1923V12.9616C13.0772 12.4517 12.664 12.0385 12.1541 12.0385ZM12.4618 14.1923C12.4618 14.2739 12.4294 14.3522 12.3717 14.4099C12.314 14.4676 12.2358 14.5 12.1541 14.5H11.8157C11.6288 14.5007 11.4465 14.5579 11.2928 14.6641C11.139 14.7703 11.0209 14.9206 10.9541 15.0951C10.9216 15.181 10.8863 15.2659 10.8483 15.3496C10.771 15.5202 10.7473 15.7102 10.7802 15.8945C10.8132 16.0789 10.9013 16.2489 11.0329 16.3822L11.2735 16.6231C11.3021 16.6517 11.3248 16.6856 11.3403 16.7229C11.3558 16.7602 11.3638 16.8002 11.3638 16.8406C11.3638 16.881 11.3559 16.921 11.3404 16.9584C11.325 16.9957 11.3023 17.0297 11.2738 17.0582L11.2735 17.0585L10.404 17.928C10.3463 17.9857 10.268 18.0181 10.1865 18.0181C10.1049 18.0181 10.0266 17.9857 9.96892 17.928L9.72769 17.6871C9.5945 17.5554 9.42447 17.4672 9.24008 17.4342C9.05569 17.4013 8.86564 17.4251 8.69507 17.5025C8.61156 17.5404 8.52691 17.5757 8.44122 17.6083C8.26683 17.6751 8.1167 17.7931 8.01056 17.9467C7.90441 18.1004 7.84721 18.2825 7.84645 18.4692V18.8077C7.84645 18.8893 7.81404 18.9676 7.75633 19.0253C7.69863 19.083 7.62037 19.1154 7.53876 19.1154H6.30799C6.22639 19.1154 6.14813 19.083 6.09042 19.0253C6.03272 18.9676 6.0003 18.8893 6.0003 18.8077V18.4692C5.99961 18.2824 5.9424 18.1001 5.8362 17.9463C5.72999 17.7926 5.57975 17.6745 5.40522 17.6077C5.31928 17.5752 5.23442 17.5399 5.15076 17.5019C4.98016 17.4246 4.79015 17.4009 4.6058 17.4339C4.42145 17.4668 4.25142 17.5549 4.11815 17.6865L3.87722 17.9271C3.84867 17.9557 3.81476 17.9784 3.77743 17.9939C3.74011 18.0093 3.7001 18.0173 3.65969 18.0173C3.61929 18.0174 3.57927 18.0094 3.54193 17.994C3.50459 17.9785 3.47066 17.9559 3.44207 17.9273L3.44184 17.9271L2.5723 17.0585C2.51462 17.0008 2.48221 16.9225 2.48221 16.8409C2.48221 16.7594 2.51462 16.6811 2.5723 16.6234L2.81322 16.3822C2.94483 16.2489 3.03293 16.0789 3.06589 15.8945C3.09885 15.7102 3.07512 15.5202 2.99784 15.3496C2.95995 15.2661 2.92466 15.1814 2.89199 15.0957C2.82536 14.9211 2.70747 14.7708 2.55381 14.6645C2.40015 14.5582 2.21792 14.5008 2.03107 14.5H1.69261C1.611 14.5 1.53274 14.4676 1.47504 14.4099C1.41733 14.3522 1.38492 14.2739 1.38492 14.1923V12.9616C1.38492 12.88 1.41733 12.8017 1.47504 12.744C1.53274 12.6863 1.611 12.6539 1.69261 12.6539H2.03107C2.21795 12.6532 2.40024 12.596 2.554 12.4898C2.70777 12.3836 2.82581 12.2333 2.89261 12.0588C2.92522 11.9726 2.96049 11.8878 2.99845 11.8043C3.07573 11.6337 3.09945 11.4437 3.06649 11.2594C3.03353 11.075 2.94544 10.905 2.81384 10.7717L2.57199 10.5308C2.5434 10.5022 2.52072 10.4683 2.50524 10.431C2.48975 10.3937 2.48177 10.3537 2.48175 10.3133C2.48173 10.2729 2.48967 10.2328 2.50511 10.1955C2.52056 10.1582 2.5432 10.1242 2.57176 10.0956L2.57199 10.0954L3.44153 9.22586C3.49923 9.16818 3.57748 9.13578 3.65907 9.13578C3.74066 9.13578 3.81891 9.16818 3.87661 9.22586L4.11784 9.46679C4.25102 9.5985 4.42106 9.68667 4.60544 9.71964C4.78983 9.75261 4.97989 9.72881 5.15045 9.6514C5.23396 9.61352 5.31862 9.57822 5.4043 9.54556C5.57893 9.47898 5.72932 9.36111 5.8357 9.20744C5.94207 9.05378 5.99946 8.87152 6.0003 8.68463V8.34617C6.0003 8.26457 6.03272 8.1863 6.09042 8.1286C6.14813 8.0709 6.22639 8.03848 6.30799 8.03848H7.53876C7.62037 8.03848 7.69863 8.0709 7.75633 8.1286C7.81404 8.1863 7.84645 8.26457 7.84645 8.34617V8.68463C7.84714 8.87151 7.90435 9.05381 8.01056 9.20757C8.11676 9.36133 8.267 9.47937 8.44153 9.54617C8.52769 9.57879 8.61249 9.61406 8.69599 9.65202C8.86656 9.72943 9.05661 9.75322 9.241 9.72026C9.42539 9.68729 9.59543 9.59912 9.72861 9.4674L9.96953 9.22679C10.0275 9.16946 10.1057 9.1373 10.1872 9.1373C10.2687 9.1373 10.347 9.16946 10.4049 9.22679L11.2745 10.0963C11.3321 10.154 11.3645 10.2323 11.3645 10.3139C11.3645 10.3955 11.3321 10.4737 11.2745 10.5314L11.0335 10.7726C10.9019 10.9059 10.8138 11.0759 10.7809 11.2603C10.7479 11.4446 10.7716 11.6347 10.8489 11.8052C10.8868 11.8888 10.9221 11.9734 10.9548 12.0591C11.0215 12.2335 11.1395 12.3836 11.2931 12.4898C11.4468 12.5959 11.6289 12.6531 11.8157 12.6539H12.1541C12.2358 12.6539 12.314 12.6863 12.3717 12.744C12.4294 12.8017 12.4618 12.88 12.4618 12.9616V14.1923Z" />
    </mask>
    <path
        d="M12.1541 12.0385H11.8157C11.7535 12.0386 11.6929 12.0196 11.6419 11.984C11.5909 11.9485 11.5521 11.8981 11.5308 11.8397C11.4934 11.7417 11.453 11.645 11.4095 11.5496C11.3832 11.4929 11.375 11.4296 11.386 11.3681C11.397 11.3067 11.4267 11.2501 11.4711 11.2062L11.7123 10.9646C12.0704 10.6034 12.0698 10.0207 11.7108 9.66033L10.8412 8.79079C10.4803 8.43202 9.89749 8.43202 9.53661 8.79079L9.29538 9.03171C9.25133 9.0759 9.19478 9.10549 9.13337 9.1165C9.07195 9.1275 9.00864 9.11939 8.95199 9.09325C8.85616 9.04993 8.75931 9.00889 8.66153 8.97017C8.60287 8.94898 8.55219 8.91016 8.51644 8.85905C8.48069 8.80793 8.46162 8.74701 8.46184 8.68463V8.34617C8.46184 7.83636 8.04857 7.4231 7.53876 7.4231H6.30799C5.79819 7.4231 5.38492 7.83636 5.38492 8.34617V8.68463C5.38503 8.74678 5.36601 8.80746 5.33046 8.85844C5.2949 8.90941 5.24451 8.9482 5.18615 8.96956C5.08769 9.0071 4.99138 9.0474 4.89599 9.09079C4.83935 9.11699 4.77603 9.12513 4.7146 9.11413C4.65318 9.10312 4.59662 9.07349 4.55261 9.02925L4.31107 8.78802C3.95022 8.42948 3.36761 8.42948 3.00676 8.78802L2.13722 9.66033C1.77845 10.0212 1.77845 10.6041 2.13722 10.9649L2.37815 11.2062C2.42249 11.2501 2.45219 11.3067 2.46321 11.3681C2.47422 11.4296 2.46601 11.4929 2.43969 11.5496C2.39622 11.6451 2.35569 11.742 2.31815 11.84C2.29667 11.8987 2.25753 11.9493 2.20612 11.9848C2.15472 12.0204 2.09356 12.0391 2.03107 12.0385H1.69261C1.1828 12.0385 0.769531 12.4517 0.769531 12.9616V14.1923C0.769531 14.7021 1.1828 15.1154 1.69261 15.1154H2.03107C2.09322 15.1153 2.1539 15.1343 2.20487 15.1699C2.25584 15.2054 2.29464 15.2558 2.31599 15.3142C2.35353 15.4126 2.39384 15.5089 2.43722 15.6043C2.46354 15.6609 2.47176 15.7243 2.46075 15.7857C2.44973 15.8472 2.42003 15.9038 2.37569 15.9477L2.13445 16.1892C1.77592 16.5501 1.77592 17.1327 2.13445 17.4936L3.00399 18.3631C3.36488 18.7219 3.94772 18.7219 4.30861 18.3631L4.54984 18.1222C4.59389 18.078 4.65044 18.0484 4.71185 18.0374C4.77326 18.0264 4.83657 18.0345 4.89322 18.0606C4.98905 18.104 5.0859 18.145 5.18369 18.1837C5.24264 18.2047 5.29364 18.2434 5.32968 18.2945C5.36572 18.3456 5.38502 18.4067 5.38492 18.4692V18.8077C5.38492 19.3175 5.79819 19.7308 6.30799 19.7308H7.53876C8.04857 19.7308 8.46184 19.3175 8.46184 18.8077V18.4692C8.46173 18.4071 8.48074 18.3464 8.5163 18.2954C8.55186 18.2445 8.60224 18.2057 8.66061 18.1843C8.75907 18.1468 8.85538 18.1065 8.95076 18.0631C9.0074 18.0369 9.07073 18.0287 9.13215 18.0398C9.19358 18.0508 9.25013 18.0804 9.29415 18.1246L9.53569 18.3659C9.89703 18.7238 10.4795 18.7231 10.84 18.3643L11.7095 17.4948C12.0683 17.1339 12.0683 16.5511 11.7095 16.1902L11.4686 15.9489C11.4243 15.905 11.3946 15.8484 11.3835 15.787C11.3725 15.7255 11.3807 15.6622 11.4071 15.6056C11.4504 15.5097 11.4914 15.4129 11.5301 15.3151C11.5513 15.2564 11.5902 15.2057 11.6413 15.17C11.6924 15.1343 11.7533 15.1152 11.8157 15.1154H12.1541C12.664 15.1154 13.0772 14.7021 13.0772 14.1923V12.9616C13.0772 12.4517 12.664 12.0385 12.1541 12.0385ZM12.4618 14.1923C12.4618 14.2739 12.4294 14.3522 12.3717 14.4099C12.314 14.4676 12.2358 14.5 12.1541 14.5H11.8157C11.6288 14.5007 11.4465 14.5579 11.2928 14.6641C11.139 14.7703 11.0209 14.9206 10.9541 15.0951C10.9216 15.181 10.8863 15.2659 10.8483 15.3496C10.771 15.5202 10.7473 15.7102 10.7802 15.8945C10.8132 16.0789 10.9013 16.2489 11.0329 16.3822L11.2735 16.6231C11.3021 16.6517 11.3248 16.6856 11.3403 16.7229C11.3558 16.7602 11.3638 16.8002 11.3638 16.8406C11.3638 16.881 11.3559 16.921 11.3404 16.9584C11.325 16.9957 11.3023 17.0297 11.2738 17.0582L11.2735 17.0585L10.404 17.928C10.3463 17.9857 10.268 18.0181 10.1865 18.0181C10.1049 18.0181 10.0266 17.9857 9.96892 17.928L9.72769 17.6871C9.5945 17.5554 9.42447 17.4672 9.24008 17.4342C9.05569 17.4013 8.86564 17.4251 8.69507 17.5025C8.61156 17.5404 8.52691 17.5757 8.44122 17.6083C8.26683 17.6751 8.1167 17.7931 8.01056 17.9467C7.90441 18.1004 7.84721 18.2825 7.84645 18.4692V18.8077C7.84645 18.8893 7.81404 18.9676 7.75633 19.0253C7.69863 19.083 7.62037 19.1154 7.53876 19.1154H6.30799C6.22639 19.1154 6.14813 19.083 6.09042 19.0253C6.03272 18.9676 6.0003 18.8893 6.0003 18.8077V18.4692C5.99961 18.2824 5.9424 18.1001 5.8362 17.9463C5.72999 17.7926 5.57975 17.6745 5.40522 17.6077C5.31928 17.5752 5.23442 17.5399 5.15076 17.5019C4.98016 17.4246 4.79015 17.4009 4.6058 17.4339C4.42145 17.4668 4.25142 17.5549 4.11815 17.6865L3.87722 17.9271C3.84867 17.9557 3.81476 17.9784 3.77743 17.9939C3.74011 18.0093 3.7001 18.0173 3.65969 18.0173C3.61929 18.0174 3.57927 18.0094 3.54193 17.994C3.50459 17.9785 3.47066 17.9559 3.44207 17.9273L3.44184 17.9271L2.5723 17.0585C2.51462 17.0008 2.48221 16.9225 2.48221 16.8409C2.48221 16.7594 2.51462 16.6811 2.5723 16.6234L2.81322 16.3822C2.94483 16.2489 3.03293 16.0789 3.06589 15.8945C3.09885 15.7102 3.07512 15.5202 2.99784 15.3496C2.95995 15.2661 2.92466 15.1814 2.89199 15.0957C2.82536 14.9211 2.70747 14.7708 2.55381 14.6645C2.40015 14.5582 2.21792 14.5008 2.03107 14.5H1.69261C1.611 14.5 1.53274 14.4676 1.47504 14.4099C1.41733 14.3522 1.38492 14.2739 1.38492 14.1923V12.9616C1.38492 12.88 1.41733 12.8017 1.47504 12.744C1.53274 12.6863 1.611 12.6539 1.69261 12.6539H2.03107C2.21795 12.6532 2.40024 12.596 2.554 12.4898C2.70777 12.3836 2.82581 12.2333 2.89261 12.0588C2.92522 11.9726 2.96049 11.8878 2.99845 11.8043C3.07573 11.6337 3.09945 11.4437 3.06649 11.2594C3.03353 11.075 2.94544 10.905 2.81384 10.7717L2.57199 10.5308C2.5434 10.5022 2.52072 10.4683 2.50524 10.431C2.48975 10.3937 2.48177 10.3537 2.48175 10.3133C2.48173 10.2729 2.48967 10.2328 2.50511 10.1955C2.52056 10.1582 2.5432 10.1242 2.57176 10.0956L2.57199 10.0954L3.44153 9.22586C3.49923 9.16818 3.57748 9.13578 3.65907 9.13578C3.74066 9.13578 3.81891 9.16818 3.87661 9.22586L4.11784 9.46679C4.25102 9.5985 4.42106 9.68667 4.60544 9.71964C4.78983 9.75261 4.97989 9.72881 5.15045 9.6514C5.23396 9.61352 5.31862 9.57822 5.4043 9.54556C5.57893 9.47898 5.72932 9.36111 5.8357 9.20744C5.94207 9.05378 5.99946 8.87152 6.0003 8.68463V8.34617C6.0003 8.26457 6.03272 8.1863 6.09042 8.1286C6.14813 8.0709 6.22639 8.03848 6.30799 8.03848H7.53876C7.62037 8.03848 7.69863 8.0709 7.75633 8.1286C7.81404 8.1863 7.84645 8.26457 7.84645 8.34617V8.68463C7.84714 8.87151 7.90435 9.05381 8.01056 9.20757C8.11676 9.36133 8.267 9.47937 8.44153 9.54617C8.52769 9.57879 8.61249 9.61406 8.69599 9.65202C8.86656 9.72943 9.05661 9.75322 9.241 9.72026C9.42539 9.68729 9.59543 9.59912 9.72861 9.4674L9.96953 9.22679C10.0275 9.16946 10.1057 9.1373 10.1872 9.1373C10.2687 9.1373 10.347 9.16946 10.4049 9.22679L11.2745 10.0963C11.3321 10.154 11.3645 10.2323 11.3645 10.3139C11.3645 10.3955 11.3321 10.4737 11.2745 10.5314L11.0335 10.7726C10.9019 10.9059 10.8138 11.0759 10.7809 11.2603C10.7479 11.4446 10.7716 11.6347 10.8489 11.8052C10.8868 11.8888 10.9221 11.9734 10.9548 12.0591C11.0215 12.2335 11.1395 12.3836 11.2931 12.4898C11.4468 12.5959 11.6289 12.6531 11.8157 12.6539H12.1541C12.2358 12.6539 12.314 12.6863 12.3717 12.744C12.4294 12.8017 12.4618 12.88 12.4618 12.9616V14.1923Z"
        fill="#ECEEF1" />
    <path
        d="M12.1541 12.0385H11.8157C11.7535 12.0386 11.6929 12.0196 11.6419 11.984C11.5909 11.9485 11.5521 11.8981 11.5308 11.8397C11.4934 11.7417 11.453 11.645 11.4095 11.5496C11.3832 11.4929 11.375 11.4296 11.386 11.3681C11.397 11.3067 11.4267 11.2501 11.4711 11.2062L11.7123 10.9646C12.0704 10.6034 12.0698 10.0207 11.7108 9.66033L10.8412 8.79079C10.4803 8.43202 9.89749 8.43202 9.53661 8.79079L9.29538 9.03171C9.25133 9.0759 9.19478 9.10549 9.13337 9.1165C9.07195 9.1275 9.00864 9.11939 8.95199 9.09325C8.85616 9.04993 8.75931 9.00889 8.66153 8.97017C8.60287 8.94898 8.55219 8.91016 8.51644 8.85905C8.48069 8.80793 8.46162 8.74701 8.46184 8.68463V8.34617C8.46184 7.83636 8.04857 7.4231 7.53876 7.4231H6.30799C5.79819 7.4231 5.38492 7.83636 5.38492 8.34617V8.68463C5.38503 8.74678 5.36601 8.80746 5.33046 8.85844C5.2949 8.90941 5.24451 8.9482 5.18615 8.96956C5.08769 9.0071 4.99138 9.0474 4.89599 9.09079C4.83935 9.11699 4.77603 9.12513 4.7146 9.11413C4.65318 9.10312 4.59662 9.07349 4.55261 9.02925L4.31107 8.78802C3.95022 8.42948 3.36761 8.42948 3.00676 8.78802L2.13722 9.66033C1.77845 10.0212 1.77845 10.6041 2.13722 10.9649L2.37815 11.2062C2.42249 11.2501 2.45219 11.3067 2.46321 11.3681C2.47422 11.4296 2.46601 11.4929 2.43969 11.5496C2.39622 11.6451 2.35569 11.742 2.31815 11.84C2.29667 11.8987 2.25753 11.9493 2.20612 11.9848C2.15472 12.0204 2.09356 12.0391 2.03107 12.0385H1.69261C1.1828 12.0385 0.769531 12.4517 0.769531 12.9616V14.1923C0.769531 14.7021 1.1828 15.1154 1.69261 15.1154H2.03107C2.09322 15.1153 2.1539 15.1343 2.20487 15.1699C2.25584 15.2054 2.29464 15.2558 2.31599 15.3142C2.35353 15.4126 2.39384 15.5089 2.43722 15.6043C2.46354 15.6609 2.47176 15.7243 2.46075 15.7857C2.44973 15.8472 2.42003 15.9038 2.37569 15.9477L2.13445 16.1892C1.77592 16.5501 1.77592 17.1327 2.13445 17.4936L3.00399 18.3631C3.36488 18.7219 3.94772 18.7219 4.30861 18.3631L4.54984 18.1222C4.59389 18.078 4.65044 18.0484 4.71185 18.0374C4.77326 18.0264 4.83657 18.0345 4.89322 18.0606C4.98905 18.104 5.0859 18.145 5.18369 18.1837C5.24264 18.2047 5.29364 18.2434 5.32968 18.2945C5.36572 18.3456 5.38502 18.4067 5.38492 18.4692V18.8077C5.38492 19.3175 5.79819 19.7308 6.30799 19.7308H7.53876C8.04857 19.7308 8.46184 19.3175 8.46184 18.8077V18.4692C8.46173 18.4071 8.48074 18.3464 8.5163 18.2954C8.55186 18.2445 8.60224 18.2057 8.66061 18.1843C8.75907 18.1468 8.85538 18.1065 8.95076 18.0631C9.0074 18.0369 9.07073 18.0287 9.13215 18.0398C9.19358 18.0508 9.25013 18.0804 9.29415 18.1246L9.53569 18.3659C9.89703 18.7238 10.4795 18.7231 10.84 18.3643L11.7095 17.4948C12.0683 17.1339 12.0683 16.5511 11.7095 16.1902L11.4686 15.9489C11.4243 15.905 11.3946 15.8484 11.3835 15.787C11.3725 15.7255 11.3807 15.6622 11.4071 15.6056C11.4504 15.5097 11.4914 15.4129 11.5301 15.3151C11.5513 15.2564 11.5902 15.2057 11.6413 15.17C11.6924 15.1343 11.7533 15.1152 11.8157 15.1154H12.1541C12.664 15.1154 13.0772 14.7021 13.0772 14.1923V12.9616C13.0772 12.4517 12.664 12.0385 12.1541 12.0385ZM12.4618 14.1923C12.4618 14.2739 12.4294 14.3522 12.3717 14.4099C12.314 14.4676 12.2358 14.5 12.1541 14.5H11.8157C11.6288 14.5007 11.4465 14.5579 11.2928 14.6641C11.139 14.7703 11.0209 14.9206 10.9541 15.0951C10.9216 15.181 10.8863 15.2659 10.8483 15.3496C10.771 15.5202 10.7473 15.7102 10.7802 15.8945C10.8132 16.0789 10.9013 16.2489 11.0329 16.3822L11.2735 16.6231C11.3021 16.6517 11.3248 16.6856 11.3403 16.7229C11.3558 16.7602 11.3638 16.8002 11.3638 16.8406C11.3638 16.881 11.3559 16.921 11.3404 16.9584C11.325 16.9957 11.3023 17.0297 11.2738 17.0582L11.2735 17.0585L10.404 17.928C10.3463 17.9857 10.268 18.0181 10.1865 18.0181C10.1049 18.0181 10.0266 17.9857 9.96892 17.928L9.72769 17.6871C9.5945 17.5554 9.42447 17.4672 9.24008 17.4342C9.05569 17.4013 8.86564 17.4251 8.69507 17.5025C8.61156 17.5404 8.52691 17.5757 8.44122 17.6083C8.26683 17.6751 8.1167 17.7931 8.01056 17.9467C7.90441 18.1004 7.84721 18.2825 7.84645 18.4692V18.8077C7.84645 18.8893 7.81404 18.9676 7.75633 19.0253C7.69863 19.083 7.62037 19.1154 7.53876 19.1154H6.30799C6.22639 19.1154 6.14813 19.083 6.09042 19.0253C6.03272 18.9676 6.0003 18.8893 6.0003 18.8077V18.4692C5.99961 18.2824 5.9424 18.1001 5.8362 17.9463C5.72999 17.7926 5.57975 17.6745 5.40522 17.6077C5.31928 17.5752 5.23442 17.5399 5.15076 17.5019C4.98016 17.4246 4.79015 17.4009 4.6058 17.4339C4.42145 17.4668 4.25142 17.5549 4.11815 17.6865L3.87722 17.9271C3.84867 17.9557 3.81476 17.9784 3.77743 17.9939C3.74011 18.0093 3.7001 18.0173 3.65969 18.0173C3.61929 18.0174 3.57927 18.0094 3.54193 17.994C3.50459 17.9785 3.47066 17.9559 3.44207 17.9273L3.44184 17.9271L2.5723 17.0585C2.51462 17.0008 2.48221 16.9225 2.48221 16.8409C2.48221 16.7594 2.51462 16.6811 2.5723 16.6234L2.81322 16.3822C2.94483 16.2489 3.03293 16.0789 3.06589 15.8945C3.09885 15.7102 3.07512 15.5202 2.99784 15.3496C2.95995 15.2661 2.92466 15.1814 2.89199 15.0957C2.82536 14.9211 2.70747 14.7708 2.55381 14.6645C2.40015 14.5582 2.21792 14.5008 2.03107 14.5H1.69261C1.611 14.5 1.53274 14.4676 1.47504 14.4099C1.41733 14.3522 1.38492 14.2739 1.38492 14.1923V12.9616C1.38492 12.88 1.41733 12.8017 1.47504 12.744C1.53274 12.6863 1.611 12.6539 1.69261 12.6539H2.03107C2.21795 12.6532 2.40024 12.596 2.554 12.4898C2.70777 12.3836 2.82581 12.2333 2.89261 12.0588C2.92522 11.9726 2.96049 11.8878 2.99845 11.8043C3.07573 11.6337 3.09945 11.4437 3.06649 11.2594C3.03353 11.075 2.94544 10.905 2.81384 10.7717L2.57199 10.5308C2.5434 10.5022 2.52072 10.4683 2.50524 10.431C2.48975 10.3937 2.48177 10.3537 2.48175 10.3133C2.48173 10.2729 2.48967 10.2328 2.50511 10.1955C2.52056 10.1582 2.5432 10.1242 2.57176 10.0956L2.57199 10.0954L3.44153 9.22586C3.49923 9.16818 3.57748 9.13578 3.65907 9.13578C3.74066 9.13578 3.81891 9.16818 3.87661 9.22586L4.11784 9.46679C4.25102 9.5985 4.42106 9.68667 4.60544 9.71964C4.78983 9.75261 4.97989 9.72881 5.15045 9.6514C5.23396 9.61352 5.31862 9.57822 5.4043 9.54556C5.57893 9.47898 5.72932 9.36111 5.8357 9.20744C5.94207 9.05378 5.99946 8.87152 6.0003 8.68463V8.34617C6.0003 8.26457 6.03272 8.1863 6.09042 8.1286C6.14813 8.0709 6.22639 8.03848 6.30799 8.03848H7.53876C7.62037 8.03848 7.69863 8.0709 7.75633 8.1286C7.81404 8.1863 7.84645 8.26457 7.84645 8.34617V8.68463C7.84714 8.87151 7.90435 9.05381 8.01056 9.20757C8.11676 9.36133 8.267 9.47937 8.44153 9.54617C8.52769 9.57879 8.61249 9.61406 8.69599 9.65202C8.86656 9.72943 9.05661 9.75322 9.241 9.72026C9.42539 9.68729 9.59543 9.59912 9.72861 9.4674L9.96953 9.22679C10.0275 9.16946 10.1057 9.1373 10.1872 9.1373C10.2687 9.1373 10.347 9.16946 10.4049 9.22679L11.2745 10.0963C11.3321 10.154 11.3645 10.2323 11.3645 10.3139C11.3645 10.3955 11.3321 10.4737 11.2745 10.5314L11.0335 10.7726C10.9019 10.9059 10.8138 11.0759 10.7809 11.2603C10.7479 11.4446 10.7716 11.6347 10.8489 11.8052C10.8868 11.8888 10.9221 11.9734 10.9548 12.0591C11.0215 12.2335 11.1395 12.3836 11.2931 12.4898C11.4468 12.5959 11.6289 12.6531 11.8157 12.6539H12.1541C12.2358 12.6539 12.314 12.6863 12.3717 12.744C12.4294 12.8017 12.4618 12.88 12.4618 12.9616V14.1923Z"
        mask="url(#path-1-outside-1_7329_29219)" stroke="#ECEEF1"
        stroke-width="0.4" />
    <mask fill="black" height="17" id="path-2-outside-2_7329_29219"
        maskUnits="userSpaceOnUse" width="17" x="3.125" y="0.269287">
        <rect fill="white" height="17" width="17" x="3.125" y="0.269287" />
        <path
            d="M9.68572 13.4539C9.68291 13.3802 9.67716 13.3066 9.66849 13.2333C9.65864 13.1545 9.64695 13.0764 9.63064 12.9997C9.61988 12.9496 9.60572 12.9001 9.59218 12.8502C9.57503 12.7871 9.55563 12.7246 9.53403 12.6628C9.51895 12.6201 9.50326 12.5776 9.48726 12.5354C9.44765 12.4369 9.40234 12.3407 9.35157 12.2474C9.34757 12.2404 9.34511 12.2327 9.34111 12.2256C9.26106 12.0831 9.16838 11.9481 9.06418 11.8222C9.05526 11.8111 9.04511 11.8007 9.03587 11.7899C8.99374 11.7398 8.9497 11.6914 8.90387 11.6447C8.87987 11.6197 8.85464 11.5964 8.82941 11.5724C8.79864 11.5437 8.76787 11.5154 8.73711 11.4884C8.69986 11.456 8.66179 11.4246 8.62295 11.3942L8.57249 11.3567C8.09639 11.0001 7.51749 10.8074 6.92264 10.8077C6.89188 10.8077 6.86111 10.8124 6.83034 10.8136C6.76436 10.8153 6.69847 10.8194 6.6328 10.8259C6.59803 10.8296 6.56295 10.8336 6.52818 10.8385C6.42787 10.8517 6.32834 10.8703 6.23003 10.8942C4.74845 11.2771 3.85776 12.7885 4.24061 14.2701C4.36449 14.7495 4.61456 15.1869 4.96481 15.5369C5.31507 15.8868 5.7527 16.1366 6.23218 16.2601C6.23711 16.2601 6.24234 16.2616 6.24757 16.2628C6.35382 16.2893 6.46148 16.3099 6.57003 16.3244C6.64172 16.3333 6.71341 16.3351 6.78541 16.3385C6.83341 16.341 6.87772 16.3481 6.92788 16.3481C7.01557 16.3481 7.10664 16.3422 7.19957 16.333C7.20941 16.333 7.21926 16.3302 7.23034 16.329C7.3067 16.3207 7.38267 16.3091 7.45803 16.2942C7.4888 16.2884 7.51741 16.2807 7.54695 16.2739C7.60181 16.2614 7.65629 16.2474 7.71034 16.2317C7.75341 16.2188 7.79526 16.2037 7.83741 16.189C7.87957 16.1742 7.92326 16.1582 7.96695 16.1416C8.01064 16.125 8.04726 16.1059 8.08695 16.0874C8.13864 16.0637 8.19003 16.0404 8.2408 16.0127H8.24264C8.5298 15.8589 8.79504 15.6674 9.03126 15.4431C9.09508 15.3836 9.15055 15.3157 9.19618 15.2413C9.43634 14.8563 9.59411 14.4257 9.65957 13.9767C9.66818 13.9173 9.67588 13.8579 9.68049 13.7973C9.6848 13.7416 9.68788 13.6862 9.68911 13.6308C9.68911 13.6133 9.69157 13.5967 9.69157 13.5791C9.69188 13.5357 9.68757 13.4957 9.68572 13.4539ZM9.07249 13.6554C9.07249 13.681 9.07034 13.7065 9.0688 13.7317C9.06304 13.8067 9.0538 13.8813 9.04111 13.9554C8.98432 14.2713 8.8578 14.5706 8.67076 14.8314C8.48371 15.0922 8.24086 15.308 7.95988 15.4631C7.92263 15.4828 7.88487 15.5015 7.84664 15.5191L7.82111 15.5314C7.64235 15.6126 7.45363 15.6697 7.25988 15.7013C7.24634 15.7034 7.23249 15.7059 7.21864 15.7077C7.18018 15.7133 7.14234 15.7179 7.1048 15.7213C7.05485 15.7256 7.00477 15.7281 6.95464 15.729H6.89034C6.81754 15.7281 6.74483 15.7236 6.67249 15.7154L6.63557 15.7111C6.55095 15.7001 6.46702 15.6842 6.38418 15.6637C5.2318 15.3688 4.53672 14.1955 4.83164 13.0431C4.92733 12.6692 5.1217 12.328 5.39444 12.0549C5.66718 11.7819 6.00827 11.5872 6.38203 11.4911V11.4908C6.55879 11.4462 6.74035 11.4235 6.92264 11.4231C7.01062 11.4236 7.09848 11.4296 7.18572 11.441C7.20911 11.4437 7.23218 11.4481 7.25526 11.4514C7.32172 11.4619 7.38757 11.4751 7.45249 11.4917C7.47372 11.4973 7.49495 11.5022 7.51587 11.5081C7.67949 11.5553 7.83698 11.6216 7.98511 11.7056C8.0088 11.7194 8.03187 11.7339 8.05526 11.7484C8.10387 11.7791 8.15095 11.8099 8.19741 11.845C8.22234 11.8631 8.24757 11.881 8.27157 11.9004C8.33195 11.9486 8.38977 11.9999 8.4448 12.0542C8.46664 12.0764 8.48664 12.1007 8.50787 12.1237C8.54326 12.1622 8.57772 12.2016 8.61064 12.2431C8.63338 12.2719 8.65544 12.3013 8.6768 12.3311C8.70757 12.3754 8.73834 12.4216 8.76603 12.4684C8.78141 12.4939 8.7968 12.5188 8.81249 12.545C8.85218 12.618 8.88752 12.6933 8.91834 12.7705C8.93064 12.8013 8.94111 12.8321 8.95218 12.8628C8.97218 12.9194 8.98941 12.9767 9.00449 13.0345C9.01218 13.0653 9.0208 13.0927 9.02726 13.1225C9.04522 13.2057 9.05826 13.2898 9.06634 13.3745C9.06818 13.397 9.06818 13.4197 9.06972 13.4422C9.07403 13.513 9.07526 13.5841 9.07249 13.6554ZM18.3073 7.73083H17.3396C17.2766 7.73146 17.2151 7.71232 17.1637 7.6761C17.1122 7.63988 17.0734 7.58842 17.0528 7.52898C16.9574 7.24315 16.8419 6.96441 16.7073 6.69483C16.6794 6.63805 16.6701 6.57394 16.6807 6.51159C16.6913 6.44924 16.7213 6.39181 16.7663 6.34744L17.4525 5.66036C17.8126 5.29994 17.8126 4.71586 17.4525 4.35544L16.1442 3.04929C15.7838 2.68913 15.1997 2.68913 14.8393 3.04929L14.1534 3.73483C14.1091 3.77988 14.0517 3.80985 13.9895 3.82051C13.9272 3.83117 13.8631 3.82197 13.8063 3.79421C13.5367 3.65887 13.2579 3.54279 12.9719 3.44683C12.9122 3.42641 12.8605 3.38772 12.824 3.33624C12.7876 3.28477 12.7682 3.22313 12.7688 3.16006V2.19236C12.7688 1.68256 12.3555 1.26929 11.8457 1.26929H9.99957C9.48976 1.26929 9.07649 1.68256 9.07649 2.19236V3.16006C9.07714 3.22298 9.058 3.28451 9.02178 3.33597C8.98556 3.38743 8.93409 3.4262 8.87464 3.44683C8.58878 3.54276 8.31004 3.65874 8.04049 3.7939C7.98374 3.82186 7.91961 3.83121 7.85723 3.8206C7.79486 3.80999 7.73743 3.77998 7.69311 3.73483L7.00603 3.04867C6.64518 2.68956 6.06195 2.68956 5.70111 3.04867L4.39526 4.35452C4.03491 4.71498 4.03491 5.29929 4.39526 5.65975L5.40418 6.67052C5.46213 6.72665 5.53982 6.75778 5.6205 6.7572C5.70118 6.75661 5.7784 6.72436 5.83553 6.66739C5.89266 6.61042 5.92513 6.53329 5.92594 6.45261C5.92676 6.37194 5.89585 6.29417 5.83988 6.23606L4.83034 5.22559C4.77265 5.16789 4.74025 5.08965 4.74025 5.00806C4.74025 4.92647 4.77265 4.84822 4.83034 4.79052L6.13618 3.48467C6.19388 3.42699 6.27213 3.39458 6.35372 3.39458C6.43531 3.39458 6.51356 3.42699 6.57126 3.48467L7.25864 4.17083C7.39425 4.30722 7.5694 4.39741 7.7592 4.42856C7.94899 4.45972 8.14378 4.43026 8.31588 4.34436C8.55961 4.22232 8.81161 4.11755 9.07003 4.03083C9.25192 3.96925 9.40983 3.85203 9.52143 3.69576C9.63303 3.53949 9.69266 3.35208 9.69188 3.16006V2.19236C9.69188 2.11076 9.72429 2.0325 9.782 1.97479C9.8397 1.91709 9.91796 1.88467 9.99957 1.88467H11.8457C11.9273 1.88467 12.0056 1.91709 12.0633 1.97479C12.121 2.0325 12.1534 2.11076 12.1534 2.19236V3.16006C12.1526 3.35204 12.2123 3.53941 12.3239 3.69563C12.4355 3.85184 12.5934 3.969 12.7753 4.03052C13.0338 4.11728 13.2859 4.22215 13.5297 4.34436C13.7019 4.42981 13.8966 4.459 14.0862 4.42781C14.2759 4.39661 14.4509 4.30661 14.5866 4.17052L15.274 3.48467C15.3317 3.42699 15.41 3.39458 15.4916 3.39458C15.5732 3.39458 15.6514 3.42699 15.7091 3.48467L17.015 4.79083C17.0725 4.84851 17.1049 4.9267 17.1049 5.00821C17.1049 5.08972 17.0725 5.16791 17.015 5.22559L16.3288 5.91298C16.1925 6.04866 16.1024 6.2238 16.0713 6.41357C16.0401 6.60333 16.0695 6.79808 16.1553 6.97021C16.2773 7.21394 16.3821 7.46595 16.4688 7.72436C16.5303 7.90628 16.6475 8.06423 16.8038 8.17583C16.9601 8.28744 17.1475 8.34704 17.3396 8.34621H18.3073C18.3889 8.34621 18.4671 8.37863 18.5248 8.43633C18.5825 8.49403 18.615 8.5723 18.615 8.6539V10.5001C18.615 10.5817 18.5825 10.6599 18.5248 10.7176C18.4671 10.7753 18.3889 10.8077 18.3073 10.8077H17.3396C17.1476 10.807 16.9602 10.8666 16.804 10.9782C16.6478 11.0898 16.5306 11.2477 16.4691 11.4296C16.3824 11.6882 16.2775 11.9403 16.1553 12.1841C16.0697 12.3562 16.0404 12.5509 16.0716 12.7406C16.1028 12.9303 16.1929 13.1053 16.3291 13.241L17.0153 13.9284C17.0729 13.9861 17.1053 14.0643 17.1053 14.1459C17.1053 14.2275 17.0729 14.3057 17.0153 14.3634L15.7088 15.6693C15.6511 15.7269 15.5729 15.7592 15.4914 15.7592C15.4099 15.7592 15.3317 15.7269 15.274 15.6693L14.263 14.6604C14.2062 14.6018 14.1284 14.5681 14.0468 14.5668C13.9653 14.5655 13.8865 14.5967 13.8279 14.6534C13.7982 14.6822 13.7746 14.7166 13.7585 14.7546C13.7425 14.7927 13.7342 14.8336 13.7343 14.8749C13.7343 14.9162 13.7427 14.9571 13.7589 14.9951C13.7751 15.0331 13.7987 15.0674 13.8285 15.0961L14.8393 16.105C15.1997 16.4651 15.7838 16.4651 16.1442 16.105L17.45 14.7994C17.8104 14.439 17.8104 13.8547 17.45 13.4942L16.7648 12.8077C16.7198 12.7634 16.6898 12.7061 16.6792 12.6438C16.6685 12.5815 16.6777 12.5175 16.7054 12.4607C16.8408 12.1911 16.9568 11.9122 17.0528 11.6262C17.0732 11.5665 17.1119 11.5148 17.1634 11.4784C17.2149 11.4419 17.2765 11.4226 17.3396 11.4231H18.3073C18.8171 11.4231 19.2303 11.0099 19.2303 10.5001V8.6539C19.2303 8.14409 18.8171 7.73083 18.3073 7.73083Z" />
    </mask>
    <path
        d="M9.68572 13.4539C9.68291 13.3802 9.67716 13.3066 9.66849 13.2333C9.65864 13.1545 9.64695 13.0764 9.63064 12.9997C9.61988 12.9496 9.60572 12.9001 9.59218 12.8502C9.57503 12.7871 9.55563 12.7246 9.53403 12.6628C9.51895 12.6201 9.50326 12.5776 9.48726 12.5354C9.44765 12.4369 9.40234 12.3407 9.35157 12.2474C9.34757 12.2404 9.34511 12.2327 9.34111 12.2256C9.26106 12.0831 9.16838 11.9481 9.06418 11.8222C9.05526 11.8111 9.04511 11.8007 9.03587 11.7899C8.99374 11.7398 8.9497 11.6914 8.90387 11.6447C8.87987 11.6197 8.85464 11.5964 8.82941 11.5724C8.79864 11.5437 8.76787 11.5154 8.73711 11.4884C8.69986 11.456 8.66179 11.4246 8.62295 11.3942L8.57249 11.3567C8.09639 11.0001 7.51749 10.8074 6.92264 10.8077C6.89188 10.8077 6.86111 10.8124 6.83034 10.8136C6.76436 10.8153 6.69847 10.8194 6.6328 10.8259C6.59803 10.8296 6.56295 10.8336 6.52818 10.8385C6.42787 10.8517 6.32834 10.8703 6.23003 10.8942C4.74845 11.2771 3.85776 12.7885 4.24061 14.2701C4.36449 14.7495 4.61456 15.1869 4.96481 15.5369C5.31507 15.8868 5.7527 16.1366 6.23218 16.2601C6.23711 16.2601 6.24234 16.2616 6.24757 16.2628C6.35382 16.2893 6.46148 16.3099 6.57003 16.3244C6.64172 16.3333 6.71341 16.3351 6.78541 16.3385C6.83341 16.341 6.87772 16.3481 6.92788 16.3481C7.01557 16.3481 7.10664 16.3422 7.19957 16.333C7.20941 16.333 7.21926 16.3302 7.23034 16.329C7.3067 16.3207 7.38267 16.3091 7.45803 16.2942C7.4888 16.2884 7.51741 16.2807 7.54695 16.2739C7.60181 16.2614 7.65629 16.2474 7.71034 16.2317C7.75341 16.2188 7.79526 16.2037 7.83741 16.189C7.87957 16.1742 7.92326 16.1582 7.96695 16.1416C8.01064 16.125 8.04726 16.1059 8.08695 16.0874C8.13864 16.0637 8.19003 16.0404 8.2408 16.0127H8.24264C8.5298 15.8589 8.79504 15.6674 9.03126 15.4431C9.09508 15.3836 9.15055 15.3157 9.19618 15.2413C9.43634 14.8563 9.59411 14.4257 9.65957 13.9767C9.66818 13.9173 9.67588 13.8579 9.68049 13.7973C9.6848 13.7416 9.68788 13.6862 9.68911 13.6308C9.68911 13.6133 9.69157 13.5967 9.69157 13.5791C9.69188 13.5357 9.68757 13.4957 9.68572 13.4539ZM9.07249 13.6554C9.07249 13.681 9.07034 13.7065 9.0688 13.7317C9.06304 13.8067 9.0538 13.8813 9.04111 13.9554C8.98432 14.2713 8.8578 14.5706 8.67076 14.8314C8.48371 15.0922 8.24086 15.308 7.95988 15.4631C7.92263 15.4828 7.88487 15.5015 7.84664 15.5191L7.82111 15.5314C7.64235 15.6126 7.45363 15.6697 7.25988 15.7013C7.24634 15.7034 7.23249 15.7059 7.21864 15.7077C7.18018 15.7133 7.14234 15.7179 7.1048 15.7213C7.05485 15.7256 7.00477 15.7281 6.95464 15.729H6.89034C6.81754 15.7281 6.74483 15.7236 6.67249 15.7154L6.63557 15.7111C6.55095 15.7001 6.46702 15.6842 6.38418 15.6637C5.2318 15.3688 4.53672 14.1955 4.83164 13.0431C4.92733 12.6692 5.1217 12.328 5.39444 12.0549C5.66718 11.7819 6.00827 11.5872 6.38203 11.4911V11.4908C6.55879 11.4462 6.74035 11.4235 6.92264 11.4231C7.01062 11.4236 7.09848 11.4296 7.18572 11.441C7.20911 11.4437 7.23218 11.4481 7.25526 11.4514C7.32172 11.4619 7.38757 11.4751 7.45249 11.4917C7.47372 11.4973 7.49495 11.5022 7.51587 11.5081C7.67949 11.5553 7.83698 11.6216 7.98511 11.7056C8.0088 11.7194 8.03187 11.7339 8.05526 11.7484C8.10387 11.7791 8.15095 11.8099 8.19741 11.845C8.22234 11.8631 8.24757 11.881 8.27157 11.9004C8.33195 11.9486 8.38977 11.9999 8.4448 12.0542C8.46664 12.0764 8.48664 12.1007 8.50787 12.1237C8.54326 12.1622 8.57772 12.2016 8.61064 12.2431C8.63338 12.2719 8.65544 12.3013 8.6768 12.3311C8.70757 12.3754 8.73834 12.4216 8.76603 12.4684C8.78141 12.4939 8.7968 12.5188 8.81249 12.545C8.85218 12.618 8.88752 12.6933 8.91834 12.7705C8.93064 12.8013 8.94111 12.8321 8.95218 12.8628C8.97218 12.9194 8.98941 12.9767 9.00449 13.0345C9.01218 13.0653 9.0208 13.0927 9.02726 13.1225C9.04522 13.2057 9.05826 13.2898 9.06634 13.3745C9.06818 13.397 9.06818 13.4197 9.06972 13.4422C9.07403 13.513 9.07526 13.5841 9.07249 13.6554ZM18.3073 7.73083H17.3396C17.2766 7.73146 17.2151 7.71232 17.1637 7.6761C17.1122 7.63988 17.0734 7.58842 17.0528 7.52898C16.9574 7.24315 16.8419 6.96441 16.7073 6.69483C16.6794 6.63805 16.6701 6.57394 16.6807 6.51159C16.6913 6.44924 16.7213 6.39181 16.7663 6.34744L17.4525 5.66036C17.8126 5.29994 17.8126 4.71586 17.4525 4.35544L16.1442 3.04929C15.7838 2.68913 15.1997 2.68913 14.8393 3.04929L14.1534 3.73483C14.1091 3.77988 14.0517 3.80985 13.9895 3.82051C13.9272 3.83117 13.8631 3.82197 13.8063 3.79421C13.5367 3.65887 13.2579 3.54279 12.9719 3.44683C12.9122 3.42641 12.8605 3.38772 12.824 3.33624C12.7876 3.28477 12.7682 3.22313 12.7688 3.16006V2.19236C12.7688 1.68256 12.3555 1.26929 11.8457 1.26929H9.99957C9.48976 1.26929 9.07649 1.68256 9.07649 2.19236V3.16006C9.07714 3.22298 9.058 3.28451 9.02178 3.33597C8.98556 3.38743 8.93409 3.4262 8.87464 3.44683C8.58878 3.54276 8.31004 3.65874 8.04049 3.7939C7.98374 3.82186 7.91961 3.83121 7.85723 3.8206C7.79486 3.80999 7.73743 3.77998 7.69311 3.73483L7.00603 3.04867C6.64518 2.68956 6.06195 2.68956 5.70111 3.04867L4.39526 4.35452C4.03491 4.71498 4.03491 5.29929 4.39526 5.65975L5.40418 6.67052C5.46213 6.72665 5.53982 6.75778 5.6205 6.7572C5.70118 6.75661 5.7784 6.72436 5.83553 6.66739C5.89266 6.61042 5.92513 6.53329 5.92594 6.45261C5.92676 6.37194 5.89585 6.29417 5.83988 6.23606L4.83034 5.22559C4.77265 5.16789 4.74025 5.08965 4.74025 5.00806C4.74025 4.92647 4.77265 4.84822 4.83034 4.79052L6.13618 3.48467C6.19388 3.42699 6.27213 3.39458 6.35372 3.39458C6.43531 3.39458 6.51356 3.42699 6.57126 3.48467L7.25864 4.17083C7.39425 4.30722 7.5694 4.39741 7.7592 4.42856C7.94899 4.45972 8.14378 4.43026 8.31588 4.34436C8.55961 4.22232 8.81161 4.11755 9.07003 4.03083C9.25192 3.96925 9.40983 3.85203 9.52143 3.69576C9.63303 3.53949 9.69266 3.35208 9.69188 3.16006V2.19236C9.69188 2.11076 9.72429 2.0325 9.782 1.97479C9.8397 1.91709 9.91796 1.88467 9.99957 1.88467H11.8457C11.9273 1.88467 12.0056 1.91709 12.0633 1.97479C12.121 2.0325 12.1534 2.11076 12.1534 2.19236V3.16006C12.1526 3.35204 12.2123 3.53941 12.3239 3.69563C12.4355 3.85184 12.5934 3.969 12.7753 4.03052C13.0338 4.11728 13.2859 4.22215 13.5297 4.34436C13.7019 4.42981 13.8966 4.459 14.0862 4.42781C14.2759 4.39661 14.4509 4.30661 14.5866 4.17052L15.274 3.48467C15.3317 3.42699 15.41 3.39458 15.4916 3.39458C15.5732 3.39458 15.6514 3.42699 15.7091 3.48467L17.015 4.79083C17.0725 4.84851 17.1049 4.9267 17.1049 5.00821C17.1049 5.08972 17.0725 5.16791 17.015 5.22559L16.3288 5.91298C16.1925 6.04866 16.1024 6.2238 16.0713 6.41357C16.0401 6.60333 16.0695 6.79808 16.1553 6.97021C16.2773 7.21394 16.3821 7.46595 16.4688 7.72436C16.5303 7.90628 16.6475 8.06423 16.8038 8.17583C16.9601 8.28744 17.1475 8.34704 17.3396 8.34621H18.3073C18.3889 8.34621 18.4671 8.37863 18.5248 8.43633C18.5825 8.49403 18.615 8.5723 18.615 8.6539V10.5001C18.615 10.5817 18.5825 10.6599 18.5248 10.7176C18.4671 10.7753 18.3889 10.8077 18.3073 10.8077H17.3396C17.1476 10.807 16.9602 10.8666 16.804 10.9782C16.6478 11.0898 16.5306 11.2477 16.4691 11.4296C16.3824 11.6882 16.2775 11.9403 16.1553 12.1841C16.0697 12.3562 16.0404 12.5509 16.0716 12.7406C16.1028 12.9303 16.1929 13.1053 16.3291 13.241L17.0153 13.9284C17.0729 13.9861 17.1053 14.0643 17.1053 14.1459C17.1053 14.2275 17.0729 14.3057 17.0153 14.3634L15.7088 15.6693C15.6511 15.7269 15.5729 15.7592 15.4914 15.7592C15.4099 15.7592 15.3317 15.7269 15.274 15.6693L14.263 14.6604C14.2062 14.6018 14.1284 14.5681 14.0468 14.5668C13.9653 14.5655 13.8865 14.5967 13.8279 14.6534C13.7982 14.6822 13.7746 14.7166 13.7585 14.7546C13.7425 14.7927 13.7342 14.8336 13.7343 14.8749C13.7343 14.9162 13.7427 14.9571 13.7589 14.9951C13.7751 15.0331 13.7987 15.0674 13.8285 15.0961L14.8393 16.105C15.1997 16.4651 15.7838 16.4651 16.1442 16.105L17.45 14.7994C17.8104 14.439 17.8104 13.8547 17.45 13.4942L16.7648 12.8077C16.7198 12.7634 16.6898 12.7061 16.6792 12.6438C16.6685 12.5815 16.6777 12.5175 16.7054 12.4607C16.8408 12.1911 16.9568 11.9122 17.0528 11.6262C17.0732 11.5665 17.1119 11.5148 17.1634 11.4784C17.2149 11.4419 17.2765 11.4226 17.3396 11.4231H18.3073C18.8171 11.4231 19.2303 11.0099 19.2303 10.5001V8.6539C19.2303 8.14409 18.8171 7.73083 18.3073 7.73083Z"
        fill="#ECEEF1" />
    <path
        d="M9.68572 13.4539C9.68291 13.3802 9.67716 13.3066 9.66849 13.2333C9.65864 13.1545 9.64695 13.0764 9.63064 12.9997C9.61988 12.9496 9.60572 12.9001 9.59218 12.8502C9.57503 12.7871 9.55563 12.7246 9.53403 12.6628C9.51895 12.6201 9.50326 12.5776 9.48726 12.5354C9.44765 12.4369 9.40234 12.3407 9.35157 12.2474C9.34757 12.2404 9.34511 12.2327 9.34111 12.2256C9.26106 12.0831 9.16838 11.9481 9.06418 11.8222C9.05526 11.8111 9.04511 11.8007 9.03587 11.7899C8.99374 11.7398 8.9497 11.6914 8.90387 11.6447C8.87987 11.6197 8.85464 11.5964 8.82941 11.5724C8.79864 11.5437 8.76787 11.5154 8.73711 11.4884C8.69986 11.456 8.66179 11.4246 8.62295 11.3942L8.57249 11.3567C8.09639 11.0001 7.51749 10.8074 6.92264 10.8077C6.89188 10.8077 6.86111 10.8124 6.83034 10.8136C6.76436 10.8153 6.69847 10.8194 6.6328 10.8259C6.59803 10.8296 6.56295 10.8336 6.52818 10.8385C6.42787 10.8517 6.32834 10.8703 6.23003 10.8942C4.74845 11.2771 3.85776 12.7885 4.24061 14.2701C4.36449 14.7495 4.61456 15.1869 4.96481 15.5369C5.31507 15.8868 5.7527 16.1366 6.23218 16.2601C6.23711 16.2601 6.24234 16.2616 6.24757 16.2628C6.35382 16.2893 6.46148 16.3099 6.57003 16.3244C6.64172 16.3333 6.71341 16.3351 6.78541 16.3385C6.83341 16.341 6.87772 16.3481 6.92788 16.3481C7.01557 16.3481 7.10664 16.3422 7.19957 16.333C7.20941 16.333 7.21926 16.3302 7.23034 16.329C7.3067 16.3207 7.38267 16.3091 7.45803 16.2942C7.4888 16.2884 7.51741 16.2807 7.54695 16.2739C7.60181 16.2614 7.65629 16.2474 7.71034 16.2317C7.75341 16.2188 7.79526 16.2037 7.83741 16.189C7.87957 16.1742 7.92326 16.1582 7.96695 16.1416C8.01064 16.125 8.04726 16.1059 8.08695 16.0874C8.13864 16.0637 8.19003 16.0404 8.2408 16.0127H8.24264C8.5298 15.8589 8.79504 15.6674 9.03126 15.4431C9.09508 15.3836 9.15055 15.3157 9.19618 15.2413C9.43634 14.8563 9.59411 14.4257 9.65957 13.9767C9.66818 13.9173 9.67588 13.8579 9.68049 13.7973C9.6848 13.7416 9.68788 13.6862 9.68911 13.6308C9.68911 13.6133 9.69157 13.5967 9.69157 13.5791C9.69188 13.5357 9.68757 13.4957 9.68572 13.4539ZM9.07249 13.6554C9.07249 13.681 9.07034 13.7065 9.0688 13.7317C9.06304 13.8067 9.0538 13.8813 9.04111 13.9554C8.98432 14.2713 8.8578 14.5706 8.67076 14.8314C8.48371 15.0922 8.24086 15.308 7.95988 15.4631C7.92263 15.4828 7.88487 15.5015 7.84664 15.5191L7.82111 15.5314C7.64235 15.6126 7.45363 15.6697 7.25988 15.7013C7.24634 15.7034 7.23249 15.7059 7.21864 15.7077C7.18018 15.7133 7.14234 15.7179 7.1048 15.7213C7.05485 15.7256 7.00477 15.7281 6.95464 15.729H6.89034C6.81754 15.7281 6.74483 15.7236 6.67249 15.7154L6.63557 15.7111C6.55095 15.7001 6.46702 15.6842 6.38418 15.6637C5.2318 15.3688 4.53672 14.1955 4.83164 13.0431C4.92733 12.6692 5.1217 12.328 5.39444 12.0549C5.66718 11.7819 6.00827 11.5872 6.38203 11.4911V11.4908C6.55879 11.4462 6.74035 11.4235 6.92264 11.4231C7.01062 11.4236 7.09848 11.4296 7.18572 11.441C7.20911 11.4437 7.23218 11.4481 7.25526 11.4514C7.32172 11.4619 7.38757 11.4751 7.45249 11.4917C7.47372 11.4973 7.49495 11.5022 7.51587 11.5081C7.67949 11.5553 7.83698 11.6216 7.98511 11.7056C8.0088 11.7194 8.03187 11.7339 8.05526 11.7484C8.10387 11.7791 8.15095 11.8099 8.19741 11.845C8.22234 11.8631 8.24757 11.881 8.27157 11.9004C8.33195 11.9486 8.38977 11.9999 8.4448 12.0542C8.46664 12.0764 8.48664 12.1007 8.50787 12.1237C8.54326 12.1622 8.57772 12.2016 8.61064 12.2431C8.63338 12.2719 8.65544 12.3013 8.6768 12.3311C8.70757 12.3754 8.73834 12.4216 8.76603 12.4684C8.78141 12.4939 8.7968 12.5188 8.81249 12.545C8.85218 12.618 8.88752 12.6933 8.91834 12.7705C8.93064 12.8013 8.94111 12.8321 8.95218 12.8628C8.97218 12.9194 8.98941 12.9767 9.00449 13.0345C9.01218 13.0653 9.0208 13.0927 9.02726 13.1225C9.04522 13.2057 9.05826 13.2898 9.06634 13.3745C9.06818 13.397 9.06818 13.4197 9.06972 13.4422C9.07403 13.513 9.07526 13.5841 9.07249 13.6554ZM18.3073 7.73083H17.3396C17.2766 7.73146 17.2151 7.71232 17.1637 7.6761C17.1122 7.63988 17.0734 7.58842 17.0528 7.52898C16.9574 7.24315 16.8419 6.96441 16.7073 6.69483C16.6794 6.63805 16.6701 6.57394 16.6807 6.51159C16.6913 6.44924 16.7213 6.39181 16.7663 6.34744L17.4525 5.66036C17.8126 5.29994 17.8126 4.71586 17.4525 4.35544L16.1442 3.04929C15.7838 2.68913 15.1997 2.68913 14.8393 3.04929L14.1534 3.73483C14.1091 3.77988 14.0517 3.80985 13.9895 3.82051C13.9272 3.83117 13.8631 3.82197 13.8063 3.79421C13.5367 3.65887 13.2579 3.54279 12.9719 3.44683C12.9122 3.42641 12.8605 3.38772 12.824 3.33624C12.7876 3.28477 12.7682 3.22313 12.7688 3.16006V2.19236C12.7688 1.68256 12.3555 1.26929 11.8457 1.26929H9.99957C9.48976 1.26929 9.07649 1.68256 9.07649 2.19236V3.16006C9.07714 3.22298 9.058 3.28451 9.02178 3.33597C8.98556 3.38743 8.93409 3.4262 8.87464 3.44683C8.58878 3.54276 8.31004 3.65874 8.04049 3.7939C7.98374 3.82186 7.91961 3.83121 7.85723 3.8206C7.79486 3.80999 7.73743 3.77998 7.69311 3.73483L7.00603 3.04867C6.64518 2.68956 6.06195 2.68956 5.70111 3.04867L4.39526 4.35452C4.03491 4.71498 4.03491 5.29929 4.39526 5.65975L5.40418 6.67052C5.46213 6.72665 5.53982 6.75778 5.6205 6.7572C5.70118 6.75661 5.7784 6.72436 5.83553 6.66739C5.89266 6.61042 5.92513 6.53329 5.92594 6.45261C5.92676 6.37194 5.89585 6.29417 5.83988 6.23606L4.83034 5.22559C4.77265 5.16789 4.74025 5.08965 4.74025 5.00806C4.74025 4.92647 4.77265 4.84822 4.83034 4.79052L6.13618 3.48467C6.19388 3.42699 6.27213 3.39458 6.35372 3.39458C6.43531 3.39458 6.51356 3.42699 6.57126 3.48467L7.25864 4.17083C7.39425 4.30722 7.5694 4.39741 7.7592 4.42856C7.94899 4.45972 8.14378 4.43026 8.31588 4.34436C8.55961 4.22232 8.81161 4.11755 9.07003 4.03083C9.25192 3.96925 9.40983 3.85203 9.52143 3.69576C9.63303 3.53949 9.69266 3.35208 9.69188 3.16006V2.19236C9.69188 2.11076 9.72429 2.0325 9.782 1.97479C9.8397 1.91709 9.91796 1.88467 9.99957 1.88467H11.8457C11.9273 1.88467 12.0056 1.91709 12.0633 1.97479C12.121 2.0325 12.1534 2.11076 12.1534 2.19236V3.16006C12.1526 3.35204 12.2123 3.53941 12.3239 3.69563C12.4355 3.85184 12.5934 3.969 12.7753 4.03052C13.0338 4.11728 13.2859 4.22215 13.5297 4.34436C13.7019 4.42981 13.8966 4.459 14.0862 4.42781C14.2759 4.39661 14.4509 4.30661 14.5866 4.17052L15.274 3.48467C15.3317 3.42699 15.41 3.39458 15.4916 3.39458C15.5732 3.39458 15.6514 3.42699 15.7091 3.48467L17.015 4.79083C17.0725 4.84851 17.1049 4.9267 17.1049 5.00821C17.1049 5.08972 17.0725 5.16791 17.015 5.22559L16.3288 5.91298C16.1925 6.04866 16.1024 6.2238 16.0713 6.41357C16.0401 6.60333 16.0695 6.79808 16.1553 6.97021C16.2773 7.21394 16.3821 7.46595 16.4688 7.72436C16.5303 7.90628 16.6475 8.06423 16.8038 8.17583C16.9601 8.28744 17.1475 8.34704 17.3396 8.34621H18.3073C18.3889 8.34621 18.4671 8.37863 18.5248 8.43633C18.5825 8.49403 18.615 8.5723 18.615 8.6539V10.5001C18.615 10.5817 18.5825 10.6599 18.5248 10.7176C18.4671 10.7753 18.3889 10.8077 18.3073 10.8077H17.3396C17.1476 10.807 16.9602 10.8666 16.804 10.9782C16.6478 11.0898 16.5306 11.2477 16.4691 11.4296C16.3824 11.6882 16.2775 11.9403 16.1553 12.1841C16.0697 12.3562 16.0404 12.5509 16.0716 12.7406C16.1028 12.9303 16.1929 13.1053 16.3291 13.241L17.0153 13.9284C17.0729 13.9861 17.1053 14.0643 17.1053 14.1459C17.1053 14.2275 17.0729 14.3057 17.0153 14.3634L15.7088 15.6693C15.6511 15.7269 15.5729 15.7592 15.4914 15.7592C15.4099 15.7592 15.3317 15.7269 15.274 15.6693L14.263 14.6604C14.2062 14.6018 14.1284 14.5681 14.0468 14.5668C13.9653 14.5655 13.8865 14.5967 13.8279 14.6534C13.7982 14.6822 13.7746 14.7166 13.7585 14.7546C13.7425 14.7927 13.7342 14.8336 13.7343 14.8749C13.7343 14.9162 13.7427 14.9571 13.7589 14.9951C13.7751 15.0331 13.7987 15.0674 13.8285 15.0961L14.8393 16.105C15.1997 16.4651 15.7838 16.4651 16.1442 16.105L17.45 14.7994C17.8104 14.439 17.8104 13.8547 17.45 13.4942L16.7648 12.8077C16.7198 12.7634 16.6898 12.7061 16.6792 12.6438C16.6685 12.5815 16.6777 12.5175 16.7054 12.4607C16.8408 12.1911 16.9568 11.9122 17.0528 11.6262C17.0732 11.5665 17.1119 11.5148 17.1634 11.4784C17.2149 11.4419 17.2765 11.4226 17.3396 11.4231H18.3073C18.8171 11.4231 19.2303 11.0099 19.2303 10.5001V8.6539C19.2303 8.14409 18.8171 7.73083 18.3073 7.73083Z"
        mask="url(#path-2-outside-2_7329_29219)" stroke="#ECEEF1"
        stroke-width="0.4" />
    <path
        d="M8.02344 6.67676C9.6254 5.0783 12.2193 5.07838 13.8213 6.67676V6.67773C15.4199 8.27978 15.4199 10.8736 13.8213 12.4756L13.8203 12.4746C13.7826 12.5133 13.7382 12.5453 13.6885 12.5664C13.6382 12.5877 13.5839 12.5986 13.5293 12.5986C13.4746 12.5986 13.4204 12.5878 13.3701 12.5664C13.3197 12.545 13.2743 12.513 13.2363 12.4736C13.1613 12.3959 13.1202 12.2916 13.1221 12.1836C13.124 12.0755 13.1684 11.9726 13.2461 11.8975C13.2563 11.8874 13.2663 11.8773 13.2764 11.8672C14.5505 10.5759 14.5364 8.49577 13.2451 7.22168C11.9539 5.94806 9.87457 5.96199 8.60059 7.25293L8.59863 7.25488C8.52174 7.32913 8.41841 7.37007 8.31152 7.36914C8.20482 7.3681 8.10282 7.32544 8.02734 7.25C7.95175 7.17441 7.90913 7.07174 7.9082 6.96484C7.90737 6.8581 7.9483 6.75551 8.02246 6.67871L8.02344 6.67676Z"
        fill="#ECEEF1" stroke="#ECEEF1" stroke-width="0.2" />
</svg>
