<svg fill="none" height="21" viewBox="0 0 20 21" width="20"
    xmlns="http://www.w3.org/2000/svg">
    <mask fill="black" height="20"
        id="path-1-outside-1_7329_29159" maskUnits="userSpaceOnUse" width="20" x="-0.230469" y="0.269287">
        <rect fill="white" height="20" width="20" x="-0.230469" y="0.269287" />
        <path
            d="M18.0622 12.0828H17.7859V9.59424C17.7859 9.20028 17.5898 8.85145 17.2903 8.63951V8.30067C17.2903 7.80917 16.8905 7.40933 16.399 7.40933H16.1927L16.982 6.25115C17.2465 5.86296 17.1459 5.33186 16.7577 5.06727L11.402 1.41751C11.214 1.28933 10.9873 1.24202 10.7636 1.28446C10.6536 1.30499 10.5487 1.34715 10.4551 1.40848C10.3615 1.46982 10.2809 1.54912 10.2182 1.64179L5.59553 8.42507H4.30917L4.61952 5.28336C4.62302 5.24796 4.64602 5.21727 4.67811 5.20519C5.07796 5.05443 5.42447 4.7729 5.6538 4.41246C5.67186 4.38409 5.70594 4.36786 5.7412 4.37143L7.75881 4.57076C7.79319 4.57415 7.8279 4.57074 7.86096 4.56072C7.89402 4.5507 7.92478 4.53427 7.95149 4.51236C7.9782 4.49046 8.00033 4.4635 8.01662 4.43304C8.03292 4.40258 8.04305 4.36921 8.04644 4.33483C8.04984 4.30045 8.04643 4.26574 8.03641 4.23268C8.02639 4.19963 8.00996 4.16886 7.98805 4.14215C7.96614 4.11544 7.93919 4.09331 7.90873 4.07702C7.87827 4.06073 7.84489 4.05059 7.81052 4.0472L5.79291 3.84787C5.55871 3.82494 5.33537 3.93286 5.20989 4.13002C5.04129 4.39505 4.7865 4.60202 4.49252 4.71286C4.27124 4.7963 4.11929 4.99505 4.09593 5.23162L3.78049 8.42503H3.44505L3.93587 3.45614C3.95353 3.27729 4.11316 3.1459 4.29222 3.16382L8.36941 3.56659C8.43884 3.57344 8.50815 3.55244 8.56209 3.50819C8.61603 3.46395 8.65019 3.40009 8.65704 3.33066C8.6639 3.26123 8.6429 3.19192 8.59865 3.13798C8.55441 3.08404 8.49055 3.04988 8.42112 3.04303L4.34393 2.64026C3.87648 2.59415 3.45846 2.93687 3.41227 3.4044L3.01665 7.40933H2.34291C1.85144 7.40933 1.45156 7.80917 1.45156 8.30067V8.5318C1.04948 8.71692 0.769531 9.12336 0.769531 9.59424V18.5616C0.769531 19.2063 1.29403 19.7308 1.93877 19.7308H16.6167C17.2614 19.7308 17.7859 19.2063 17.7859 18.5616V16.0731H18.0622C18.3883 16.0731 18.6535 15.8078 18.6535 15.4818V12.6741C18.6536 12.348 18.3883 12.0828 18.0622 12.0828ZM16.399 7.93548C16.6004 7.93544 16.7642 8.09929 16.7642 8.30071V8.43473C16.7153 8.42842 16.666 8.42521 16.6167 8.42511H15.5005L15.8341 7.93548H16.399ZM10.6529 1.93804C10.6769 1.9026 10.7077 1.87226 10.7436 1.8488C10.7794 1.82534 10.8195 1.80921 10.8616 1.80135C10.9036 1.79326 10.9468 1.7936 10.9888 1.80233C11.0307 1.81106 11.0704 1.82802 11.1058 1.85222L16.4614 5.50198C16.6099 5.6032 16.6484 5.80634 16.5473 5.95483L14.8639 8.425H14.4599L15.2852 7.21393C15.4191 7.01752 15.4301 6.76757 15.3139 6.56157C15.1595 6.2879 15.0969 5.96565 15.1377 5.65415C15.1679 5.4224 15.066 5.19618 14.8716 5.0637L12.0952 3.17168C11.9007 3.03917 11.6529 3.02702 11.4483 3.13999C11.1733 3.29179 10.8505 3.35139 10.5393 3.30784C10.3086 3.27546 10.0745 3.37966 9.94264 3.57311L6.63619 8.42503H6.2322L10.6529 1.93804ZM10.7688 6.40526C9.62317 6.40526 8.68279 7.29852 8.60617 8.42503H7.27279L10.3773 3.8694H10.3774C10.3859 3.85679 10.3973 3.84644 10.4107 3.83924C10.4241 3.83203 10.4391 3.82819 10.4543 3.82804C10.4583 3.82804 10.4623 3.82833 10.4663 3.82887C10.8895 3.88808 11.3285 3.80709 11.7025 3.60059C11.7319 3.58429 11.7697 3.58663 11.7989 3.60647L14.5753 5.49852C14.6043 5.51835 14.6203 5.55268 14.616 5.586C14.5606 6.00964 14.6457 6.44788 14.8557 6.82007C14.8725 6.84996 14.8705 6.88826 14.8505 6.91764L13.8233 8.425H12.9315C12.8548 7.29852 11.9144 6.40526 10.7688 6.40526ZM12.4039 8.42507H9.13365C9.20901 7.58893 9.91337 6.93142 10.7688 6.93142C11.6242 6.93138 12.3286 7.58893 12.4039 8.42507ZM1.97768 8.30067C1.97768 8.09925 2.14149 7.93541 2.34291 7.93541H2.96469L2.91633 8.42503H1.97768V8.30067ZM1.29565 9.59424C1.29565 9.23965 1.58415 8.95115 1.93877 8.95115H16.6167C16.9713 8.95115 17.2598 9.23965 17.2598 9.59424V10.3242H1.29565V9.59424ZM17.2598 18.5616C17.2598 18.9162 16.9713 19.2047 16.6167 19.2047H1.93877C1.58415 19.2047 1.29565 18.9162 1.29565 18.5616V17.8317H2.71423C2.74877 17.8317 2.78298 17.8249 2.81489 17.8116C2.84681 17.7984 2.8758 17.779 2.90023 17.7546C2.92465 17.7302 2.94403 17.7012 2.95725 17.6693C2.97047 17.6374 2.97727 17.6032 2.97727 17.5686C2.97727 17.5341 2.97047 17.4999 2.95725 17.468C2.94403 17.436 2.92465 17.407 2.90023 17.3826C2.8758 17.3582 2.84681 17.3388 2.81489 17.3256C2.78298 17.3124 2.74877 17.3056 2.71423 17.3056H1.29565V10.8503H17.2598V12.0828H14.7585C13.9705 12.0828 13.2878 12.5421 12.9638 13.2071C12.9628 13.2093 12.9615 13.2115 12.9604 13.2137C12.9577 13.2194 12.9553 13.2253 12.9526 13.2309C12.9141 13.3129 12.8805 13.3978 12.8532 13.4853L12.853 13.486C12.7934 13.6777 12.7632 13.8772 12.7634 14.0779C12.7634 15.1781 13.6584 16.0731 14.7585 16.0731H17.2597V17.3056H4.39863C4.36409 17.3056 4.32988 17.3124 4.29797 17.3256C4.26605 17.3388 4.23706 17.3582 4.21263 17.3826C4.18821 17.407 4.16883 17.436 4.15561 17.468C4.14239 17.4999 4.13559 17.5341 4.13559 17.5686C4.13559 17.6032 4.14239 17.6374 4.15561 17.6693C4.16883 17.7012 4.18821 17.7302 4.21263 17.7546C4.23706 17.779 4.26605 17.7984 4.29797 17.8116C4.32988 17.8249 4.36409 17.8317 4.39863 17.8317H17.2598V18.5616ZM18.1275 15.4817C18.1275 15.5177 18.0982 15.547 18.0622 15.547H14.7586C14.2017 15.547 13.7162 15.2355 13.4671 14.7776C13.4329 14.7148 13.4034 14.6496 13.3788 14.5825C13.3211 14.4251 13.2896 14.2551 13.2896 14.0779C13.2894 13.8576 13.339 13.6401 13.4346 13.4416C13.445 13.4202 13.4558 13.3991 13.4671 13.3783C13.7162 12.9204 14.2017 12.6089 14.7586 12.6089H18.0622C18.0981 12.6089 18.1275 12.6382 18.1275 12.6741V15.4817Z" />
    </mask>
    <path
        d="M18.0622 12.0828H17.7859V9.59424C17.7859 9.20028 17.5898 8.85145 17.2903 8.63951V8.30067C17.2903 7.80917 16.8905 7.40933 16.399 7.40933H16.1927L16.982 6.25115C17.2465 5.86296 17.1459 5.33186 16.7577 5.06727L11.402 1.41751C11.214 1.28933 10.9873 1.24202 10.7636 1.28446C10.6536 1.30499 10.5487 1.34715 10.4551 1.40848C10.3615 1.46982 10.2809 1.54912 10.2182 1.64179L5.59553 8.42507H4.30917L4.61952 5.28336C4.62302 5.24796 4.64602 5.21727 4.67811 5.20519C5.07796 5.05443 5.42447 4.7729 5.6538 4.41246C5.67186 4.38409 5.70594 4.36786 5.7412 4.37143L7.75881 4.57076C7.79319 4.57415 7.8279 4.57074 7.86096 4.56072C7.89402 4.5507 7.92478 4.53427 7.95149 4.51236C7.9782 4.49046 8.00033 4.4635 8.01662 4.43304C8.03292 4.40258 8.04305 4.36921 8.04644 4.33483C8.04984 4.30045 8.04643 4.26574 8.03641 4.23268C8.02639 4.19963 8.00996 4.16886 7.98805 4.14215C7.96614 4.11544 7.93919 4.09331 7.90873 4.07702C7.87827 4.06073 7.84489 4.05059 7.81052 4.0472L5.79291 3.84787C5.55871 3.82494 5.33537 3.93286 5.20989 4.13002C5.04129 4.39505 4.7865 4.60202 4.49252 4.71286C4.27124 4.7963 4.11929 4.99505 4.09593 5.23162L3.78049 8.42503H3.44505L3.93587 3.45614C3.95353 3.27729 4.11316 3.1459 4.29222 3.16382L8.36941 3.56659C8.43884 3.57344 8.50815 3.55244 8.56209 3.50819C8.61603 3.46395 8.65019 3.40009 8.65704 3.33066C8.6639 3.26123 8.6429 3.19192 8.59865 3.13798C8.55441 3.08404 8.49055 3.04988 8.42112 3.04303L4.34393 2.64026C3.87648 2.59415 3.45846 2.93687 3.41227 3.4044L3.01665 7.40933H2.34291C1.85144 7.40933 1.45156 7.80917 1.45156 8.30067V8.5318C1.04948 8.71692 0.769531 9.12336 0.769531 9.59424V18.5616C0.769531 19.2063 1.29403 19.7308 1.93877 19.7308H16.6167C17.2614 19.7308 17.7859 19.2063 17.7859 18.5616V16.0731H18.0622C18.3883 16.0731 18.6535 15.8078 18.6535 15.4818V12.6741C18.6536 12.348 18.3883 12.0828 18.0622 12.0828ZM16.399 7.93548C16.6004 7.93544 16.7642 8.09929 16.7642 8.30071V8.43473C16.7153 8.42842 16.666 8.42521 16.6167 8.42511H15.5005L15.8341 7.93548H16.399ZM10.6529 1.93804C10.6769 1.9026 10.7077 1.87226 10.7436 1.8488C10.7794 1.82534 10.8195 1.80921 10.8616 1.80135C10.9036 1.79326 10.9468 1.7936 10.9888 1.80233C11.0307 1.81106 11.0704 1.82802 11.1058 1.85222L16.4614 5.50198C16.6099 5.6032 16.6484 5.80634 16.5473 5.95483L14.8639 8.425H14.4599L15.2852 7.21393C15.4191 7.01752 15.4301 6.76757 15.3139 6.56157C15.1595 6.2879 15.0969 5.96565 15.1377 5.65415C15.1679 5.4224 15.066 5.19618 14.8716 5.0637L12.0952 3.17168C11.9007 3.03917 11.6529 3.02702 11.4483 3.13999C11.1733 3.29179 10.8505 3.35139 10.5393 3.30784C10.3086 3.27546 10.0745 3.37966 9.94264 3.57311L6.63619 8.42503H6.2322L10.6529 1.93804ZM10.7688 6.40526C9.62317 6.40526 8.68279 7.29852 8.60617 8.42503H7.27279L10.3773 3.8694H10.3774C10.3859 3.85679 10.3973 3.84644 10.4107 3.83924C10.4241 3.83203 10.4391 3.82819 10.4543 3.82804C10.4583 3.82804 10.4623 3.82833 10.4663 3.82887C10.8895 3.88808 11.3285 3.80709 11.7025 3.60059C11.7319 3.58429 11.7697 3.58663 11.7989 3.60647L14.5753 5.49852C14.6043 5.51835 14.6203 5.55268 14.616 5.586C14.5606 6.00964 14.6457 6.44788 14.8557 6.82007C14.8725 6.84996 14.8705 6.88826 14.8505 6.91764L13.8233 8.425H12.9315C12.8548 7.29852 11.9144 6.40526 10.7688 6.40526ZM12.4039 8.42507H9.13365C9.20901 7.58893 9.91337 6.93142 10.7688 6.93142C11.6242 6.93138 12.3286 7.58893 12.4039 8.42507ZM1.97768 8.30067C1.97768 8.09925 2.14149 7.93541 2.34291 7.93541H2.96469L2.91633 8.42503H1.97768V8.30067ZM1.29565 9.59424C1.29565 9.23965 1.58415 8.95115 1.93877 8.95115H16.6167C16.9713 8.95115 17.2598 9.23965 17.2598 9.59424V10.3242H1.29565V9.59424ZM17.2598 18.5616C17.2598 18.9162 16.9713 19.2047 16.6167 19.2047H1.93877C1.58415 19.2047 1.29565 18.9162 1.29565 18.5616V17.8317H2.71423C2.74877 17.8317 2.78298 17.8249 2.81489 17.8116C2.84681 17.7984 2.8758 17.779 2.90023 17.7546C2.92465 17.7302 2.94403 17.7012 2.95725 17.6693C2.97047 17.6374 2.97727 17.6032 2.97727 17.5686C2.97727 17.5341 2.97047 17.4999 2.95725 17.468C2.94403 17.436 2.92465 17.407 2.90023 17.3826C2.8758 17.3582 2.84681 17.3388 2.81489 17.3256C2.78298 17.3124 2.74877 17.3056 2.71423 17.3056H1.29565V10.8503H17.2598V12.0828H14.7585C13.9705 12.0828 13.2878 12.5421 12.9638 13.2071C12.9628 13.2093 12.9615 13.2115 12.9604 13.2137C12.9577 13.2194 12.9553 13.2253 12.9526 13.2309C12.9141 13.3129 12.8805 13.3978 12.8532 13.4853L12.853 13.486C12.7934 13.6777 12.7632 13.8772 12.7634 14.0779C12.7634 15.1781 13.6584 16.0731 14.7585 16.0731H17.2597V17.3056H4.39863C4.36409 17.3056 4.32988 17.3124 4.29797 17.3256C4.26605 17.3388 4.23706 17.3582 4.21263 17.3826C4.18821 17.407 4.16883 17.436 4.15561 17.468C4.14239 17.4999 4.13559 17.5341 4.13559 17.5686C4.13559 17.6032 4.14239 17.6374 4.15561 17.6693C4.16883 17.7012 4.18821 17.7302 4.21263 17.7546C4.23706 17.779 4.26605 17.7984 4.29797 17.8116C4.32988 17.8249 4.36409 17.8317 4.39863 17.8317H17.2598V18.5616ZM18.1275 15.4817C18.1275 15.5177 18.0982 15.547 18.0622 15.547H14.7586C14.2017 15.547 13.7162 15.2355 13.4671 14.7776C13.4329 14.7148 13.4034 14.6496 13.3788 14.5825C13.3211 14.4251 13.2896 14.2551 13.2896 14.0779C13.2894 13.8576 13.339 13.6401 13.4346 13.4416C13.445 13.4202 13.4558 13.3991 13.4671 13.3783C13.7162 12.9204 14.2017 12.6089 14.7586 12.6089H18.0622C18.0981 12.6089 18.1275 12.6382 18.1275 12.6741V15.4817Z"
        fill="#ECEEF1" />
    <path
        d="M18.0622 12.0828H17.7859V9.59424C17.7859 9.20028 17.5898 8.85145 17.2903 8.63951V8.30067C17.2903 7.80917 16.8905 7.40933 16.399 7.40933H16.1927L16.982 6.25115C17.2465 5.86296 17.1459 5.33186 16.7577 5.06727L11.402 1.41751C11.214 1.28933 10.9873 1.24202 10.7636 1.28446C10.6536 1.30499 10.5487 1.34715 10.4551 1.40848C10.3615 1.46982 10.2809 1.54912 10.2182 1.64179L5.59553 8.42507H4.30917L4.61952 5.28336C4.62302 5.24796 4.64602 5.21727 4.67811 5.20519C5.07796 5.05443 5.42447 4.7729 5.6538 4.41246C5.67186 4.38409 5.70594 4.36786 5.7412 4.37143L7.75881 4.57076C7.79319 4.57415 7.8279 4.57074 7.86096 4.56072C7.89402 4.5507 7.92478 4.53427 7.95149 4.51236C7.9782 4.49046 8.00033 4.4635 8.01662 4.43304C8.03292 4.40258 8.04305 4.36921 8.04644 4.33483C8.04984 4.30045 8.04643 4.26574 8.03641 4.23268C8.02639 4.19963 8.00996 4.16886 7.98805 4.14215C7.96614 4.11544 7.93919 4.09331 7.90873 4.07702C7.87827 4.06073 7.84489 4.05059 7.81052 4.0472L5.79291 3.84787C5.55871 3.82494 5.33537 3.93286 5.20989 4.13002C5.04129 4.39505 4.7865 4.60202 4.49252 4.71286C4.27124 4.7963 4.11929 4.99505 4.09593 5.23162L3.78049 8.42503H3.44505L3.93587 3.45614C3.95353 3.27729 4.11316 3.1459 4.29222 3.16382L8.36941 3.56659C8.43884 3.57344 8.50815 3.55244 8.56209 3.50819C8.61603 3.46395 8.65019 3.40009 8.65704 3.33066C8.6639 3.26123 8.6429 3.19192 8.59865 3.13798C8.55441 3.08404 8.49055 3.04988 8.42112 3.04303L4.34393 2.64026C3.87648 2.59415 3.45846 2.93687 3.41227 3.4044L3.01665 7.40933H2.34291C1.85144 7.40933 1.45156 7.80917 1.45156 8.30067V8.5318C1.04948 8.71692 0.769531 9.12336 0.769531 9.59424V18.5616C0.769531 19.2063 1.29403 19.7308 1.93877 19.7308H16.6167C17.2614 19.7308 17.7859 19.2063 17.7859 18.5616V16.0731H18.0622C18.3883 16.0731 18.6535 15.8078 18.6535 15.4818V12.6741C18.6536 12.348 18.3883 12.0828 18.0622 12.0828ZM16.399 7.93548C16.6004 7.93544 16.7642 8.09929 16.7642 8.30071V8.43473C16.7153 8.42842 16.666 8.42521 16.6167 8.42511H15.5005L15.8341 7.93548H16.399ZM10.6529 1.93804C10.6769 1.9026 10.7077 1.87226 10.7436 1.8488C10.7794 1.82534 10.8195 1.80921 10.8616 1.80135C10.9036 1.79326 10.9468 1.7936 10.9888 1.80233C11.0307 1.81106 11.0704 1.82802 11.1058 1.85222L16.4614 5.50198C16.6099 5.6032 16.6484 5.80634 16.5473 5.95483L14.8639 8.425H14.4599L15.2852 7.21393C15.4191 7.01752 15.4301 6.76757 15.3139 6.56157C15.1595 6.2879 15.0969 5.96565 15.1377 5.65415C15.1679 5.4224 15.066 5.19618 14.8716 5.0637L12.0952 3.17168C11.9007 3.03917 11.6529 3.02702 11.4483 3.13999C11.1733 3.29179 10.8505 3.35139 10.5393 3.30784C10.3086 3.27546 10.0745 3.37966 9.94264 3.57311L6.63619 8.42503H6.2322L10.6529 1.93804ZM10.7688 6.40526C9.62317 6.40526 8.68279 7.29852 8.60617 8.42503H7.27279L10.3773 3.8694H10.3774C10.3859 3.85679 10.3973 3.84644 10.4107 3.83924C10.4241 3.83203 10.4391 3.82819 10.4543 3.82804C10.4583 3.82804 10.4623 3.82833 10.4663 3.82887C10.8895 3.88808 11.3285 3.80709 11.7025 3.60059C11.7319 3.58429 11.7697 3.58663 11.7989 3.60647L14.5753 5.49852C14.6043 5.51835 14.6203 5.55268 14.616 5.586C14.5606 6.00964 14.6457 6.44788 14.8557 6.82007C14.8725 6.84996 14.8705 6.88826 14.8505 6.91764L13.8233 8.425H12.9315C12.8548 7.29852 11.9144 6.40526 10.7688 6.40526ZM12.4039 8.42507H9.13365C9.20901 7.58893 9.91337 6.93142 10.7688 6.93142C11.6242 6.93138 12.3286 7.58893 12.4039 8.42507ZM1.97768 8.30067C1.97768 8.09925 2.14149 7.93541 2.34291 7.93541H2.96469L2.91633 8.42503H1.97768V8.30067ZM1.29565 9.59424C1.29565 9.23965 1.58415 8.95115 1.93877 8.95115H16.6167C16.9713 8.95115 17.2598 9.23965 17.2598 9.59424V10.3242H1.29565V9.59424ZM17.2598 18.5616C17.2598 18.9162 16.9713 19.2047 16.6167 19.2047H1.93877C1.58415 19.2047 1.29565 18.9162 1.29565 18.5616V17.8317H2.71423C2.74877 17.8317 2.78298 17.8249 2.81489 17.8116C2.84681 17.7984 2.8758 17.779 2.90023 17.7546C2.92465 17.7302 2.94403 17.7012 2.95725 17.6693C2.97047 17.6374 2.97727 17.6032 2.97727 17.5686C2.97727 17.5341 2.97047 17.4999 2.95725 17.468C2.94403 17.436 2.92465 17.407 2.90023 17.3826C2.8758 17.3582 2.84681 17.3388 2.81489 17.3256C2.78298 17.3124 2.74877 17.3056 2.71423 17.3056H1.29565V10.8503H17.2598V12.0828H14.7585C13.9705 12.0828 13.2878 12.5421 12.9638 13.2071C12.9628 13.2093 12.9615 13.2115 12.9604 13.2137C12.9577 13.2194 12.9553 13.2253 12.9526 13.2309C12.9141 13.3129 12.8805 13.3978 12.8532 13.4853L12.853 13.486C12.7934 13.6777 12.7632 13.8772 12.7634 14.0779C12.7634 15.1781 13.6584 16.0731 14.7585 16.0731H17.2597V17.3056H4.39863C4.36409 17.3056 4.32988 17.3124 4.29797 17.3256C4.26605 17.3388 4.23706 17.3582 4.21263 17.3826C4.18821 17.407 4.16883 17.436 4.15561 17.468C4.14239 17.4999 4.13559 17.5341 4.13559 17.5686C4.13559 17.6032 4.14239 17.6374 4.15561 17.6693C4.16883 17.7012 4.18821 17.7302 4.21263 17.7546C4.23706 17.779 4.26605 17.7984 4.29797 17.8116C4.32988 17.8249 4.36409 17.8317 4.39863 17.8317H17.2598V18.5616ZM18.1275 15.4817C18.1275 15.5177 18.0982 15.547 18.0622 15.547H14.7586C14.2017 15.547 13.7162 15.2355 13.4671 14.7776C13.4329 14.7148 13.4034 14.6496 13.3788 14.5825C13.3211 14.4251 13.2896 14.2551 13.2896 14.0779C13.2894 13.8576 13.339 13.6401 13.4346 13.4416C13.445 13.4202 13.4558 13.3991 13.4671 13.3783C13.7162 12.9204 14.2017 12.6089 14.7586 12.6089H18.0622C18.0981 12.6089 18.1275 12.6382 18.1275 12.6741V15.4817Z"
        mask="url(#path-1-outside-1_7329_29159)" stroke="#ECEEF1"
        stroke-width="0.4" />
    <path
        d="M14.8213 12.9607C15.4374 12.9607 15.9385 13.4618 15.9385 14.0779C15.9384 14.6939 15.4374 15.195 14.8213 15.1951C14.2052 15.1951 13.7041 14.694 13.7041 14.0779C13.7041 13.4618 14.2051 12.9607 14.8213 12.9607ZM14.8213 13.5867C14.5505 13.5867 14.3301 13.8071 14.3301 14.0779C14.3301 14.3486 14.5505 14.5691 14.8213 14.5691C15.092 14.5691 15.3125 14.3486 15.3125 14.0779C15.3125 13.8071 15.0921 13.5867 14.8213 13.5867Z"
        fill="#064698" stroke="#064698" stroke-width="0.1" />
</svg>
